<?xml version="1.0" standalone="yes"?>

<svg version="1.1" viewBox="0.0 0.0 1500.0 1125.0" fill="none" stroke="none" stroke-linecap="square" stroke-miterlimit="10" xmlns="http://www.w3.org/2000/svg" xmlns:xlink="http://www.w3.org/1999/xlink"><clipPath id="g2f98e52d0_0_0.0"><path d="m0 0l1500.0 0l0 1125.0l-1500.0 0l0 -1125.0z" clip-rule="nonzero"></path></clipPath><g clip-path="url(#g2f98e52d0_0_0.0)"><path fill="#ebebeb" d="m0 0l1500.0 0l0 1125.0l-1500.0 0z" fill-rule="nonzero"></path><path fill="#778844" d="m199.60976 655.72003l0 0c-33.30632 0.0065307617 -64.08577 -17.757324 -80.7427 -46.599243c-16.656929 -28.841919 -16.660416 -64.37964 -0.009140015 -93.22485c16.651268 -28.845184 47.42724 -46.61505 80.73356 -46.61505l0 93.21954z" fill-rule="nonzero"></path><path fill="#778844" d="m192.75404 418.39713l0 0c0 -1.2587585 1.0204315 -2.2792053 2.27919 -2.2792053l9.116486 0l0 0c0.6044769 0 1.1842041 0.24014282 1.6116333 0.667572c0.4274292 0.4274292 0.66755676 1.0071411 0.66755676 1.6116333l0 32.993713c0 1.2587585 -1.0204315 2.2792053 -2.27919 2.2792053l-9.116486 0c-1.2587585 0 -2.27919 -1.0204468 -2.27919 -2.2792053z" fill-rule="nonzero"></path><path fill="#778844" d="m122.48784 438.74042l0 0c-0.628685 -1.088623 -0.25549316 -2.480194 0.8335495 -3.1081848l7.887291 -4.5479736l0 0c0.52297974 -0.3015747 1.1444702 -0.38311768 1.7277527 -0.22668457c0.5832672 0.1564331 1.0805664 0.5379944 1.3824768 1.0607605l16.499374 28.57013c0.62867737 1.088623 0.25549316 2.480194 -0.83354187 3.1081543l-7.8872986 4.548004c-1.0890503 0.6279602 -2.4815369 0.2545166 -3.1102295 -0.83410645z" fill-rule="nonzero"></path><path fill="#778844" d="m69.007324 494.59717l0 0c-1.0886307 -0.6286621 -1.4620667 -2.0211792 -0.8340988 -3.110199l4.5479965 -7.8872986l0 0c0.30156708 -0.52297974 0.79844666 -0.90460205 1.38134 -1.0609436c0.5828934 -0.15631104 1.2040558 -0.074523926 1.7268295 0.22738647l28.570114 16.49939c1.088623 0.6286621 1.4620667 2.0211792 0.8340988 3.110199l-4.548004 7.8872986c-0.6279602 1.0890503 -2.0195389 1.4622498 -3.108162 0.8335571z" fill-rule="nonzero"></path><path fill="#778844" d="m55.48234 569.3224l0 0c-1.2559319 0 -2.274067 -1.0181274 -2.274067 -2.274109l0 -9.095947l0 0c0 -0.6031494 0.23958588 -1.1815796 0.6660576 -1.6080322c0.4264717 -0.42645264 1.0048904 -0.66607666 1.6080093 -0.66607666l33.003963 0c1.2559357 0 2.2740707 1.0181274 2.2740707 2.274109l0 9.095947c0 1.2559814 -1.0181351 2.274109 -2.2740707 2.274109z" fill-rule="nonzero"></path><path fill="#778844" d="m134.31888 695.71533l0 0c-0.6286926 1.088623 -2.0211792 1.4620361 -3.1102295 0.8340454l-7.887291 -4.5479736l0 0c-0.52297974 -0.3015747 -0.90460205 -0.7984619 -1.0609207 -1.3813477c-0.15631866 -0.58288574 -0.074531555 -1.2040405 0.22737122 -1.7268066l16.499374 -28.57013c0.6286926 -1.088623 2.0211792 -1.4620361 3.1102295 -0.83410645l7.8872986 4.5480347c1.089035 0.6279297 1.4622192 2.0195312 0.83354187 3.1081543z" fill-rule="nonzero"></path><path fill="#778844" d="m78.462105 642.23474l0 0c-1.088623 0.62872314 -2.480194 0.25549316 -3.108162 -0.8334961l-4.5479965 -7.887329l0 0c-0.30156708 -0.5229492 -0.38310242 -1.1444702 -0.22667694 -1.7277222c0.15642548 -0.583313 0.5379944 -1.0805664 1.0607681 -1.3825073l28.570114 -16.49939c1.0886307 -0.6286621 2.4802017 -0.25549316 3.1081696 0.8335571l4.5479965 7.887329c0.62796783 1.0890503 0.25453186 2.4815063 -0.8340912 3.1102295z" fill-rule="nonzero"></path><path fill="#778844" d="m192.75404 673.61005l0 0c0 -1.258728 1.0204315 -2.2791748 2.27919 -2.2791748l9.116486 0l0 0c0.6044769 0 1.1842041 0.2401123 1.6116333 0.6675415c0.4274292 0.4274292 0.66755676 1.0071411 0.66755676 1.6116333l0 32.993713c0 1.2587891 -1.0204315 2.2792358 -2.27919 2.2792358l-9.116486 0c-1.2587585 0 -2.27919 -1.0204468 -2.27919 -2.2792358z" fill-rule="nonzero"></path><path fill="#778844" d="m217.97827 432.80856l0 0c0 -6.12912 4.968643 -11.097778 11.097778 -11.097778l4.3859406 0l0 0c2.9433136 0 5.7660675 1.16922 7.8473053 3.2504578c2.0812378 2.0812378 3.2504578 4.904022 3.2504578 7.8473206l0 259.38376c0 6.1291504 -4.968628 11.097778 -11.097763 11.097778l-4.3859406 0c-6.129135 0 -11.097778 -4.968628 -11.097778 -11.097778z" fill-rule="nonzero"></path><path fill="#778844" d="m336.94922 486.1356l0 0c5.305908 -3.0632324 12.088654 -1.2441406 15.149689 4.0630493l2.1904297 3.79776l0 0c1.4699402 2.5486145 1.8675232 5.577179 1.1052246 8.419495c-0.76226807 2.8422852 -2.6219788 5.2654724 -5.1699524 6.7364807l-113.32425 65.424835c-5.305908 3.0632324 -12.088654 1.2441406 -15.149673 -4.0629883l-2.1904297 -3.7977905c-3.06102 -5.30719 -1.2411804 -12.092773 4.064728 -15.156006z" fill-rule="nonzero"></path><path fill="#778844" d="m350.23694 617.10596l0 0c5.303131 3.0628662 7.11499 9.842407 4.046875 15.142517l-2.1954956 3.7926636l0 0c-1.4733582 2.545227 -3.8980103 4.4018555 -6.7406006 5.16156c-2.8425903 0.7597046 -5.8702087 0.36016846 -8.41687 -1.1106567l-113.33429 -65.45691c-5.3031464 -3.0628662 -7.11499 -9.842407 -4.046875 -15.142517l2.1954956 -3.7926636c3.0681152 -5.30011 9.85434 -7.1137695 15.157486 -4.0509033z" fill-rule="nonzero"></path><path fill="#778844" d="m263.14767 442.8625l0 0c4.3364563 -4.3364563 11.367218 -4.3364563 15.703674 0l3.103119 3.103119l0 0c2.082428 2.082428 3.2523193 4.90683 3.2523193 7.851837c0 2.9450073 -1.1698914 5.7693787 -3.2523193 7.851837l-34.908707 34.90869c-4.3364563 4.3364563 -11.367218 4.3364563 -15.703659 0l-3.103119 -3.103119c-4.3364563 -4.3364563 -4.3364563 -11.367218 0 -15.703674z" fill-rule="nonzero"></path><path fill="#778844" d="m281.94455 665.8635l0 0c4.3364563 4.336426 4.3364563 11.3671875 0 15.703613l-3.103119 3.1031494l0 0c-2.082428 2.0823975 -4.9067993 3.2523193 -7.8518066 3.2523193c-2.9450073 0 -5.769409 -1.1699219 -7.851837 -3.2523193l-34.908707 -34.90869c-4.3364563 -4.336487 -4.3364563 -11.367249 0 -15.703674l3.103119 -3.1031494c4.336441 -4.336426 11.367203 -4.336426 15.703659 0z" fill-rule="nonzero"></path><path fill="#778844" d="m318.41815 645.969l0 0c1.586853 5.923706 -1.9288025 12.012512 -7.8524475 13.599731l-4.2388916 1.1358032l0 0c-2.844635 0.762146 -5.8754883 0.36309814 -8.425781 -1.109436c-2.550293 -1.4725342 -4.411133 -3.8978882 -5.1731873 -6.7426147l-12.783691 -47.721558c-1.586853 -5.923706 1.9288025 -12.012512 7.8524475 -13.599731l4.2388916 -1.1358032c5.923645 -1.5871582 12.0121155 1.9282837 13.5989685 7.852051z" fill-rule="nonzero"></path><path fill="#778844" d="m338.47272 571.93054l0 0c5.9237366 -1.586853 12.012543 1.928833 13.599731 7.852478l1.1358032 4.2388916l0 0c0.7621765 2.8446655 0.36312866 5.8754883 -1.1094055 8.425781c-1.4725342 2.550293 -3.8979187 4.411133 -6.742584 5.1731567l-47.72159 12.783752c-5.9237366 1.586853 -12.012543 -1.928833 -13.599731 -7.852478l-1.1358032 -4.2388916c-1.5871887 -5.923645 1.9282837 -12.012085 7.8520203 -13.598938z" fill-rule="nonzero"></path><path fill="#778844" d="m293.48367 472.98914l0 0c1.586853 -5.9237366 7.675293 -9.439209 13.598938 -7.8520203l4.238922 1.1358032l0 0c2.844635 0.7621765 5.2700195 2.62323 6.7426453 5.1736755c1.4726257 2.5504456 1.8718262 5.5813904 1.1098022 8.426056l-12.783722 47.72159c-1.586853 5.923706 -7.675293 9.439148 -13.598938 7.8519897l-4.238922 -1.1358032c-5.923645 -1.5871582 -9.439301 -7.6760254 -7.8524475 -13.599731z" fill-rule="nonzero"></path><path fill="#778844" d="m347.5738 527.3771l0 0c5.9237366 1.586853 9.439209 7.675354 7.8519897 13.598938l-1.1357727 4.2389526l0 0c-0.76220703 2.8446045 -2.62323 5.2700195 -5.1736755 6.7426147c-2.5504456 1.4726562 -5.5813904 1.8718262 -8.426056 1.1098022l-47.72159 -12.783691c-5.9237366 -1.586853 -9.439178 -7.675293 -7.8519897 -13.598938l1.1357727 -4.2389526c1.5872192 -5.923584 7.6760254 -9.43927 13.599762 -7.852417z" fill-rule="nonzero"></path><path fill="#41413c" d="m144.87189 580.2448l0 0c0 -2.4000854 1.9456635 -4.345764 4.3457794 -4.345764l17.382568 0l0 0c1.1525726 0 2.2579346 0.45788574 3.072937 1.2728882c0.8149872 0.8149414 1.2728424 1.9203491 1.2728424 3.072876l0 17.38263c0 2.4000854 -1.9456635 4.345764 -4.3457794 4.345764l-17.382568 0c-2.400116 0 -4.3457794 -1.9456787 -4.3457794 -4.345764z" fill-rule="nonzero"></path><path fill="#ffffff" d="m129.63672 551.2272l0 0c0 -15.614319 12.657898 -28.272217 28.272232 -28.272217l0 0c7.4982605 0 14.689423 2.9786377 19.991486 8.280701c5.3020782 5.302124 8.280746 12.493225 8.280746 19.991516l0 0c0 15.614319 -12.657913 28.272217 -28.272232 28.272217l0 0c-15.614334 0 -28.272232 -12.657898 -28.272232 -28.272217z" fill-rule="nonzero"></path><path fill="#ffffff" d="m142.26953 567.8773l0 0c0 -2.8792114 2.3340454 -5.213257 5.2132416 -5.213257l20.852356 0l0 0c1.3826447 0 2.7086487 0.5492554 3.686325 1.5269165c0.9776764 0.97772217 1.5269165 2.303711 1.5269165 3.6863403l0 20.852356c0 2.8792114 -2.3340454 5.213257 -5.2132416 5.213257l-20.852356 0c-2.8791962 0 -5.2132416 -2.3340454 -5.2132416 -5.213257z" fill-rule="nonzero"></path><path fill="#555555" d="m1248.0132 747.2106l0 0c0 -14.762024 11.967041 -26.728943 26.729004 -26.728943l174.0614 0c7.0889893 0 13.887573 2.81604 18.900269 7.8287354c5.0125732 5.0126343 7.8287354 11.811218 7.8287354 18.900208l0 351.03577c0 14.761963 -11.967041 26.728882 -26.729004 26.728882l-174.0614 0c-14.761963 0 -26.729004 -11.966919 -26.729004 -26.728882z" fill-rule="nonzero"></path><path fill="#ffffff" d="m1270.0482 953.42786l0 0c0 -3.1224976 2.53125 -5.6538086 5.6536865 -5.6538086l37.95581 0c1.4993896 0 2.9375 0.5957031 3.9978027 1.6560059c1.0603027 1.0602417 1.6558838 2.498352 1.6558838 3.9978027l0 36.817932c0 3.1224976 -2.53125 5.6537476 -5.6536865 5.6537476l-37.95581 0c-3.1224365 0 -5.6536865 -2.53125 -5.6536865 -5.6537476z" fill-rule="nonzero"></path><path fill="#ffffff" d="m1337.1387 953.42786l0 0c0 -3.1224976 2.53125 -5.6538086 5.6536865 -5.6538086l37.95569 0c1.4995117 0 2.937622 0.5957031 3.9979248 1.6560059c1.0603027 1.0602417 1.6558838 2.498352 1.6558838 3.9978027l0 36.817932c0 3.1224976 -2.53125 5.6537476 -5.6538086 5.6537476l-37.95569 0c-3.1224365 0 -5.6536865 -2.53125 -5.6536865 -5.6537476z" fill-rule="nonzero"></path><path fill="#ffffff" d="m1270.0482 1018.5097l0 0c0 -3.1224976 2.53125 -5.6537476 5.6536865 -5.6537476l37.95581 0c1.4993896 0 2.9375 0.5956421 3.9978027 1.6559448c1.0603027 1.0603027 1.6558838 2.498352 1.6558838 3.9978027l0 36.817932c0 3.1225586 -2.53125 5.6538086 -5.6536865 5.6538086l-37.95581 0c-3.1224365 0 -5.6536865 -2.53125 -5.6536865 -5.6538086z" fill-rule="nonzero"></path><path fill="#ffffff" d="m1337.1387 1018.5097l0 0c0 -3.1224976 2.53125 -5.6537476 5.6536865 -5.6537476l37.95569 0c1.4995117 0 2.937622 0.5956421 3.9979248 1.6559448c1.0603027 1.0603027 1.6558838 2.498352 1.6558838 3.9978027l0 36.817932c0 3.1225586 -2.53125 5.6538086 -5.6538086 5.6538086l-37.95569 0c-3.1224365 0 -5.6536865 -2.53125 -5.6536865 -5.6538086z" fill-rule="nonzero"></path><path fill="#ffffff" d="m1404.2344 1018.5097l0 0c0 -3.1224976 2.53125 -5.6537476 5.6536865 -5.6537476l37.95581 0c1.4993896 0 2.9375 0.5956421 3.9978027 1.6559448c1.0603027 1.0603027 1.6558838 2.498352 1.6558838 3.9978027l0 36.817932c0 3.1225586 -2.53125 5.6538086 -5.6536865 5.6538086l-37.95581 0c-3.1224365 0 -5.6536865 -2.53125 -5.6536865 -5.6538086z" fill-rule="nonzero"></path><path fill="#ffffff" d="m1404.2344 953.42786l0 0c0 -3.1224976 2.53125 -5.6538086 5.6536865 -5.6538086l37.95581 0c1.4993896 0 2.9375 0.5957031 3.9978027 1.6560059c1.0603027 1.0602417 1.6558838 2.498352 1.6558838 3.9978027l0 36.817932c0 3.1224976 -2.53125 5.6537476 -5.6536865 5.6537476l-37.95581 0c-3.1224365 0 -5.6536865 -2.53125 -5.6536865 -5.6537476z" fill-rule="nonzero"></path><path fill="#ffffff" d="m1270.0482 825.18787l0 0c0 -3.1224976 2.53125 -5.6538086 5.6536865 -5.6538086l37.95581 0c1.4993896 0 2.9375 0.5957031 3.9978027 1.6560059c1.0603027 1.0602417 1.6558838 2.498352 1.6558838 3.9978027l0 36.817932c0 3.1224976 -2.53125 5.6537476 -5.6536865 5.6537476l-37.95581 0c-3.1224365 0 -5.6536865 -2.53125 -5.6536865 -5.6537476z" fill-rule="nonzero"></path><path fill="#ffffff" d="m1337.1387 825.18787l0 0c0 -3.1224976 2.53125 -5.6538086 5.6536865 -5.6538086l37.95569 0c1.4995117 0 2.937622 0.5957031 3.9979248 1.6560059c1.0603027 1.0602417 1.6558838 2.498352 1.6558838 3.9978027l0 36.817932c0 3.1224976 -2.53125 5.6537476 -5.6538086 5.6537476l-37.95569 0c-3.1224365 0 -5.6536865 -2.53125 -5.6536865 -5.6537476z" fill-rule="nonzero"></path><path fill="#ffffff" d="m1337.1387 890.2697l0 0c0 -3.1224976 2.53125 -5.6537476 5.6536865 -5.6537476l37.95569 0c1.4995117 0 2.937622 0.5956421 3.9979248 1.6559448c1.0603027 1.0603027 1.6558838 2.498352 1.6558838 3.9978027l0 36.817932c0 3.1224976 -2.53125 5.6538086 -5.6538086 5.6538086l-37.95569 0c-3.1224365 0 -5.6536865 -2.531311 -5.6536865 -5.6538086z" fill-rule="nonzero"></path><path fill="#ffffff" d="m1404.2344 890.2697l0 0c0 -3.1224976 2.53125 -5.6537476 5.6536865 -5.6537476l37.95581 0c1.4993896 0 2.9375 0.5956421 3.9978027 1.6559448c1.0603027 1.0603027 1.6558838 2.498352 1.6558838 3.9978027l0 36.817932c0 3.1224976 -2.53125 5.6538086 -5.6536865 5.6538086l-37.95581 0c-3.1224365 0 -5.6536865 -2.531311 -5.6536865 -5.6538086z" fill-rule="nonzero"></path><path fill="#ffffff" d="m1404.2344 825.18787l0 0c0 -3.1224976 2.53125 -5.6538086 5.6536865 -5.6538086l37.95581 0c1.4993896 0 2.9375 0.5957031 3.9978027 1.6560059c1.0603027 1.0602417 1.6558838 2.498352 1.6558838 3.9978027l0 36.817932c0 3.1224976 -2.53125 5.6537476 -5.6536865 5.6537476l-37.95581 0c-3.1224365 0 -5.6536865 -2.53125 -5.6536865 -5.6537476z" fill-rule="nonzero"></path><path fill="#ffffff" d="m1270.0482 890.2697l0 0c0 -3.1224976 2.53125 -5.6537476 5.6536865 -5.6537476l37.95581 0c1.4993896 0 2.9375 0.5956421 3.9978027 1.6559448c1.0603027 1.0603027 1.6558838 2.498352 1.6558838 3.9978027l0 36.817932c0 3.1224976 -2.53125 5.6538086 -5.6536865 5.6538086l-37.95581 0c-3.1224365 0 -5.6536865 -2.531311 -5.6536865 -5.6538086z" fill-rule="nonzero"></path><path fill="#ffffff" d="m1270.0482 760.106l0 0c0 -3.1224976 2.53125 -5.6538086 5.6536865 -5.6538086l37.95581 0c1.4993896 0 2.9375 0.5956421 3.9978027 1.6559448c1.0603027 1.0603027 1.6558838 2.498352 1.6558838 3.9978638l0 36.81787c0 3.1224976 -2.53125 5.6538086 -5.6536865 5.6538086l-37.95581 0c-3.1224365 0 -5.6536865 -2.531311 -5.6536865 -5.6538086z" fill-rule="nonzero"></path><path fill="#ffffff" d="m1337.1387 760.106l0 0c0 -3.1224976 2.53125 -5.6538086 5.6536865 -5.6538086l37.95569 0c1.4995117 0 2.937622 0.5956421 3.9979248 1.6559448c1.0603027 1.0603027 1.6558838 2.498352 1.6558838 3.9978638l0 36.81787c0 3.1224976 -2.53125 5.6538086 -5.6538086 5.6538086l-37.95569 0c-3.1224365 0 -5.6536865 -2.531311 -5.6536865 -5.6538086z" fill-rule="nonzero"></path><path fill="#ffffff" d="m1404.2344 760.106l0 0c0 -3.1224976 2.53125 -5.6538086 5.6536865 -5.6538086l37.95581 0c1.4993896 0 2.9375 0.5956421 3.9978027 1.6559448c1.0603027 1.0603027 1.6558838 2.498352 1.6558838 3.9978638l0 36.81787c0 3.1224976 -2.53125 5.6538086 -5.6536865 5.6538086l-37.95581 0c-3.1224365 0 -5.6536865 -2.531311 -5.6536865 -5.6538086z" fill-rule="nonzero"></path><path fill="#889933" d="m1127.6599 848.3239l0 0c0 -10.811096 8.76416 -19.575256 19.575195 -19.575256l127.47583 0c5.1917725 0 10.170776 2.062378 13.841797 5.7334595c3.6711426 3.6710815 5.7335205 8.6501465 5.7335205 13.841797l0 257.0998c0 10.811157 -8.76416 19.575195 -19.575317 19.575195l-127.47583 0c-10.811035 0 -19.575195 -8.764038 -19.575195 -19.575195z" fill-rule="nonzero"></path><path fill="#ffffff" d="m1143.7975 999.358l0 0c0 -2.2868652 1.8538818 -4.140808 4.140747 -4.140808l27.796875 0c1.0982666 0 2.1514893 0.4362793 2.9279785 1.2128296c0.7766113 0.7765503 1.2128906 1.829773 1.2128906 2.9279785l0 26.965393c0 2.2868652 -1.8538818 4.140869 -4.140869 4.140869l-27.796875 0c-2.2868652 0 -4.140747 -1.8540039 -4.140747 -4.140869z" fill-rule="nonzero"></path><path fill="#ffffff" d="m1192.9319 999.358l0 0c0 -2.2868652 1.8538818 -4.140808 4.140869 -4.140808l27.796875 0c1.0981445 0 2.1513672 0.4362793 2.9279785 1.2128296c0.77648926 0.7765503 1.2127686 1.829773 1.2127686 2.9279785l0 26.965393c0 2.2868652 -1.8538818 4.140869 -4.140747 4.140869l-27.796875 0c-2.2869873 0 -4.140869 -1.8540039 -4.140869 -4.140869z" fill-rule="nonzero"></path><path fill="#ffffff" d="m1143.7975 1047.0238l0 0c0 -2.2868652 1.8538818 -4.140747 4.140747 -4.140747l27.796875 0c1.0982666 0 2.1514893 0.43615723 2.9279785 1.2127686c0.7766113 0.7766113 1.2128906 1.829834 1.2128906 2.9279785l0 26.965332c0 2.2869873 -1.8538818 4.140869 -4.140869 4.140869l-27.796875 0c-2.2868652 0 -4.140747 -1.8538818 -4.140747 -4.140869z" fill-rule="nonzero"></path><path fill="#ffffff" d="m1192.9319 1047.0238l0 0c0 -2.2868652 1.8538818 -4.140747 4.140869 -4.140747l27.796875 0c1.0981445 0 2.1513672 0.43615723 2.9279785 1.2127686c0.77648926 0.7766113 1.2127686 1.829834 1.2127686 2.9279785l0 26.965332c0 2.2869873 -1.8538818 4.140869 -4.140747 4.140869l-27.796875 0c-2.2869873 0 -4.140869 -1.8538818 -4.140869 -4.140869z" fill-rule="nonzero"></path><path fill="#ffffff" d="m1242.0702 1047.0238l0 0c0 -2.2868652 1.8538818 -4.140747 4.140869 -4.140747l27.796875 0c1.0981445 0 2.1513672 0.43615723 2.9279785 1.2127686c0.77648926 0.7766113 1.2127686 1.829834 1.2127686 2.9279785l0 26.965332c0 2.2869873 -1.8538818 4.140869 -4.140747 4.140869l-27.796875 0c-2.2869873 0 -4.140869 -1.8538818 -4.140869 -4.140869z" fill-rule="nonzero"></path><path fill="#ffffff" d="m1242.0702 999.358l0 0c0 -2.2868652 1.8538818 -4.140808 4.140869 -4.140808l27.796875 0c1.0981445 0 2.1513672 0.4362793 2.9279785 1.2128296c0.77648926 0.7765503 1.2127686 1.829773 1.2127686 2.9279785l0 26.965393c0 2.2868652 -1.8538818 4.140869 -4.140747 4.140869l-27.796875 0c-2.2869873 0 -4.140869 -1.8540039 -4.140869 -4.140869z" fill-rule="nonzero"></path><path fill="#ffffff" d="m1143.7975 905.4353l0 0c0 -2.2869263 1.8538818 -4.140808 4.140747 -4.140808l27.796875 0c1.0982666 0 2.1514893 0.4362793 2.9279785 1.2128296c0.7766113 0.7765503 1.2128906 1.829773 1.2128906 2.9279785l0 26.965393c0 2.2868652 -1.8538818 4.140808 -4.140869 4.140808l-27.796875 0c-2.2868652 0 -4.140747 -1.8539429 -4.140747 -4.140808z" fill-rule="nonzero"></path><path fill="#ffffff" d="m1192.9319 905.4353l0 0c0 -2.2869263 1.8538818 -4.140808 4.140869 -4.140808l27.796875 0c1.0981445 0 2.1513672 0.4362793 2.9279785 1.2128296c0.77648926 0.7765503 1.2127686 1.829773 1.2127686 2.9279785l0 26.965393c0 2.2868652 -1.8538818 4.140808 -4.140747 4.140808l-27.796875 0c-2.2869873 0 -4.140869 -1.8539429 -4.140869 -4.140808z" fill-rule="nonzero"></path><path fill="#ffffff" d="m1192.9319 953.10114l0 0c0 -2.2869263 1.8538818 -4.140808 4.140869 -4.140808l27.796875 0c1.0981445 0 2.1513672 0.4362793 2.9279785 1.2128296c0.77648926 0.7765503 1.2127686 1.829773 1.2127686 2.9279785l0 26.965332c0 2.2869263 -1.8538818 4.140869 -4.140747 4.140869l-27.796875 0c-2.2869873 0 -4.140869 -1.8539429 -4.140869 -4.140869z" fill-rule="nonzero"></path><path fill="#ffffff" d="m1242.0702 953.10114l0 0c0 -2.2869263 1.8538818 -4.140808 4.140869 -4.140808l27.796875 0c1.0981445 0 2.1513672 0.4362793 2.9279785 1.2128296c0.77648926 0.7765503 1.2127686 1.829773 1.2127686 2.9279785l0 26.965332c0 2.2869263 -1.8538818 4.140869 -4.140747 4.140869l-27.796875 0c-2.2869873 0 -4.140869 -1.8539429 -4.140869 -4.140869z" fill-rule="nonzero"></path><path fill="#ffffff" d="m1242.0702 905.4353l0 0c0 -2.2869263 1.8538818 -4.140808 4.140869 -4.140808l27.796875 0c1.0981445 0 2.1513672 0.4362793 2.9279785 1.2128296c0.77648926 0.7765503 1.2127686 1.829773 1.2127686 2.9279785l0 26.965393c0 2.2868652 -1.8538818 4.140808 -4.140747 4.140808l-27.796875 0c-2.2869873 0 -4.140869 -1.8539429 -4.140869 -4.140808z" fill-rule="nonzero"></path><path fill="#ffffff" d="m1143.7975 953.10114l0 0c0 -2.2869263 1.8538818 -4.140808 4.140747 -4.140808l27.796875 0c1.0982666 0 2.1514893 0.4362793 2.9279785 1.2128296c0.7766113 0.7765503 1.2128906 1.829773 1.2128906 2.9279785l0 26.965332c0 2.2869263 -1.8538818 4.140869 -4.140869 4.140869l-27.796875 0c-2.2868652 0 -4.140747 -1.8539429 -4.140747 -4.140869z" fill-rule="nonzero"></path><path fill="#ffffff" d="m1143.7975 857.7695l0 0c0 -2.2869263 1.8538818 -4.140808 4.140747 -4.140808l27.796875 0c1.0982666 0 2.1514893 0.4362793 2.9279785 1.2128296c0.7766113 0.7765503 1.2128906 1.829773 1.2128906 2.9279785l0 26.965393c0 2.2868652 -1.8538818 4.140808 -4.140869 4.140808l-27.796875 0c-2.2868652 0 -4.140747 -1.8539429 -4.140747 -4.140808z" fill-rule="nonzero"></path><path fill="#ffffff" d="m1192.9319 857.7695l0 0c0 -2.2869263 1.8538818 -4.140808 4.140869 -4.140808l27.796875 0c1.0981445 0 2.1513672 0.4362793 2.9279785 1.2128296c0.77648926 0.7765503 1.2127686 1.829773 1.2127686 2.9279785l0 26.965393c0 2.2868652 -1.8538818 4.140808 -4.140747 4.140808l-27.796875 0c-2.2869873 0 -4.140869 -1.8539429 -4.140869 -4.140808z" fill-rule="nonzero"></path><path fill="#ffffff" d="m1242.0702 857.7695l0 0c0 -2.2869263 1.8538818 -4.140808 4.140869 -4.140808l27.796875 0c1.0981445 0 2.1513672 0.4362793 2.9279785 1.2128296c0.77648926 0.7765503 1.2127686 1.829773 1.2127686 2.9279785l0 26.965393c0 2.2868652 -1.8538818 4.140808 -4.140747 4.140808l-27.796875 0c-2.2869873 0 -4.140869 -1.8539429 -4.140869 -4.140808z" fill-rule="nonzero"></path><path fill="#abd228" d="m1166.8885 978.63715l0 0c0 -5.718506 4.635742 -10.354248 10.354126 -10.354248l67.42749 0c2.7460938 0 5.3796387 1.0909424 7.321533 3.0327148c1.9417725 1.9417725 3.0325928 4.5753784 3.0325928 7.321533l0 135.99103c0 5.718384 -4.635742 10.354126 -10.354126 10.354126l-67.42749 0c-5.718384 0 -10.354126 -4.635742 -10.354126 -10.354126z" fill-rule="nonzero"></path><path fill="#ffffff" d="m1175.4244 1058.5255l0 0c0 -1.2097168 0.9805908 -2.1903076 2.1901855 -2.1903076l14.703003 0c0.58081055 0 1.1379395 0.23071289 1.548706 0.6414795c0.4107666 0.4107666 0.6414795 0.9678955 0.6414795 1.5488281l0 14.263062c0 1.2097168 -0.9805908 2.1903076 -2.1901855 2.1903076l-14.703003 0c-1.2095947 0 -2.1901855 -0.9805908 -2.1901855 -2.1903076z" fill-rule="nonzero"></path><path fill="#ffffff" d="m1201.4137 1058.5255l0 0c0 -1.2097168 0.9805908 -2.1903076 2.1901855 -2.1903076l14.703003 0c0.5809326 0 1.1379395 0.23071289 1.548706 0.6414795c0.4107666 0.4107666 0.64160156 0.9678955 0.64160156 1.5488281l0 14.263062c0 1.2097168 -0.9807129 2.1903076 -2.1903076 2.1903076l-14.703003 0c-1.2095947 0 -2.1901855 -0.9805908 -2.1901855 -2.1903076z" fill-rule="nonzero"></path><path fill="#ffffff" d="m1175.4244 1083.7379l0 0c0 -1.2095947 0.9805908 -2.1901855 2.1901855 -2.1901855l14.703003 0c0.58081055 0 1.1379395 0.23071289 1.548706 0.6414795c0.4107666 0.4107666 0.6414795 0.9678955 0.6414795 1.548706l0 14.263184c0 1.2095947 -0.9805908 2.1901855 -2.1901855 2.1901855l-14.703003 0c-1.2095947 0 -2.1901855 -0.9805908 -2.1901855 -2.1901855z" fill-rule="nonzero"></path><path fill="#ffffff" d="m1201.4137 1083.7379l0 0c0 -1.2095947 0.9805908 -2.1901855 2.1901855 -2.1901855l14.703003 0c0.5809326 0 1.1379395 0.23071289 1.548706 0.6414795c0.4107666 0.4107666 0.64160156 0.9678955 0.64160156 1.548706l0 14.263184c0 1.2095947 -0.9807129 2.1901855 -2.1903076 2.1901855l-14.703003 0c-1.2095947 0 -2.1901855 -0.9805908 -2.1901855 -2.1901855z" fill-rule="nonzero"></path><path fill="#ffffff" d="m1227.405 1083.7379l0 0c0 -1.2095947 0.9805908 -2.1901855 2.1901855 -2.1901855l14.703003 0c0.5809326 0 1.1379395 0.23071289 1.548706 0.6414795c0.4107666 0.4107666 0.64160156 0.9678955 0.64160156 1.548706l0 14.263184c0 1.2095947 -0.9807129 2.1901855 -2.1903076 2.1901855l-14.703003 0c-1.2095947 0 -2.1901855 -0.9805908 -2.1901855 -2.1901855z" fill-rule="nonzero"></path><path fill="#ffffff" d="m1227.405 1058.5255l0 0c0 -1.2097168 0.9805908 -2.1903076 2.1901855 -2.1903076l14.703003 0c0.5809326 0 1.1379395 0.23071289 1.548706 0.6414795c0.4107666 0.4107666 0.64160156 0.9678955 0.64160156 1.5488281l0 14.263062c0 1.2097168 -0.9807129 2.1903076 -2.1903076 2.1903076l-14.703003 0c-1.2095947 0 -2.1901855 -0.9805908 -2.1901855 -2.1903076z" fill-rule="nonzero"></path><path fill="#ffffff" d="m1175.4244 1008.84576l0 0c0 -1.2096558 0.9805908 -2.1902466 2.1901855 -2.1902466l14.703003 0c0.58081055 0 1.1379395 0.23071289 1.548706 0.6414795c0.4107666 0.4107666 0.6414795 0.9678955 0.6414795 1.5487671l0 14.263123c0 1.2095947 -0.9805908 2.1903076 -2.1901855 2.1903076l-14.703003 0c-1.2095947 0 -2.1901855 -0.9807129 -2.1901855 -2.1903076z" fill-rule="nonzero"></path><path fill="#ffffff" d="m1201.4137 1008.84576l0 0c0 -1.2096558 0.9805908 -2.1902466 2.1901855 -2.1902466l14.703003 0c0.5809326 0 1.1379395 0.23071289 1.548706 0.6414795c0.4107666 0.4107666 0.64160156 0.9678955 0.64160156 1.5487671l0 14.263123c0 1.2095947 -0.9807129 2.1903076 -2.1903076 2.1903076l-14.703003 0c-1.2095947 0 -2.1901855 -0.9807129 -2.1901855 -2.1903076z" fill-rule="nonzero"></path><path fill="#ffffff" d="m1201.4137 1034.0582l0 0c0 -1.2095947 0.9805908 -2.1901855 2.1901855 -2.1901855l14.703003 0c0.5809326 0 1.1379395 0.23071289 1.548706 0.6414795c0.4107666 0.4107666 0.64160156 0.96777344 0.64160156 1.548706l0 14.263184c0 1.2095947 -0.9807129 2.1901855 -2.1903076 2.1901855l-14.703003 0c-1.2095947 0 -2.1901855 -0.9805908 -2.1901855 -2.1901855z" fill-rule="nonzero"></path><path fill="#ffffff" d="m1227.405 1034.0582l0 0c0 -1.2095947 0.9805908 -2.1901855 2.1901855 -2.1901855l14.703003 0c0.5809326 0 1.1379395 0.23071289 1.548706 0.6414795c0.4107666 0.4107666 0.64160156 0.96777344 0.64160156 1.548706l0 14.263184c0 1.2095947 -0.9807129 2.1901855 -2.1903076 2.1901855l-14.703003 0c-1.2095947 0 -2.1901855 -0.9805908 -2.1901855 -2.1901855z" fill-rule="nonzero"></path><path fill="#ffffff" d="m1227.405 1008.84576l0 0c0 -1.2096558 0.9805908 -2.1902466 2.1901855 -2.1902466l14.703003 0c0.5809326 0 1.1379395 0.23071289 1.548706 0.6414795c0.4107666 0.4107666 0.64160156 0.9678955 0.64160156 1.5487671l0 14.263123c0 1.2095947 -0.9807129 2.1903076 -2.1903076 2.1903076l-14.703003 0c-1.2095947 0 -2.1901855 -0.9807129 -2.1901855 -2.1903076z" fill-rule="nonzero"></path><path fill="#ffffff" d="m1175.4244 1034.0582l0 0c0 -1.2095947 0.9805908 -2.1901855 2.1901855 -2.1901855l14.703003 0c0.58081055 0 1.1379395 0.23071289 1.548706 0.6414795c0.4107666 0.4107666 0.6414795 0.96777344 0.6414795 1.548706l0 14.263184c0 1.2095947 -0.9805908 2.1901855 -2.1901855 2.1901855l-14.703003 0c-1.2095947 0 -2.1901855 -0.9805908 -2.1901855 -2.1901855z" fill-rule="nonzero"></path><path fill="#ffffff" d="m1175.4244 983.6333l0 0c0 -1.2096558 0.9805908 -2.1903076 2.1901855 -2.1903076l14.703003 0c0.58081055 0 1.1379395 0.23077393 1.548706 0.6415405c0.4107666 0.4107666 0.6414795 0.9678345 0.6414795 1.5487671l0 14.263123c0 1.2095947 -0.9805908 2.1902466 -2.1901855 2.1902466l-14.703003 0c-1.2095947 0 -2.1901855 -0.98065186 -2.1901855 -2.1902466z" fill-rule="nonzero"></path><path fill="#ffffff" d="m1201.4137 983.6333l0 0c0 -1.2096558 0.9805908 -2.1903076 2.1901855 -2.1903076l14.703003 0c0.5809326 0 1.1379395 0.23077393 1.548706 0.6415405c0.4107666 0.4107666 0.64160156 0.9678345 0.64160156 1.5487671l0 14.263123c0 1.2095947 -0.9807129 2.1902466 -2.1903076 2.1902466l-14.703003 0c-1.2095947 0 -2.1901855 -0.98065186 -2.1901855 -2.1902466z" fill-rule="nonzero"></path><path fill="#ffffff" d="m1227.405 983.6333l0 0c0 -1.2096558 0.9805908 -2.1903076 2.1901855 -2.1903076l14.703003 0c0.5809326 0 1.1379395 0.23077393 1.548706 0.6415405c0.4107666 0.4107666 0.64160156 0.9678345 0.64160156 1.5487671l0 14.263123c0 1.2095947 -0.9807129 2.1902466 -2.1903076 2.1902466l-14.703003 0c-1.2095947 0 -2.1901855 -0.98065186 -2.1901855 -2.1902466z" fill-rule="nonzero"></path><path fill="#45a748" d="m1372.5105 913.29803l0 0c0 -8.27179 6.7055664 -14.977417 14.977417 -14.977417l97.53418 0c3.972168 0 7.7817383 1.5780029 10.590576 4.38678c2.808838 2.808838 4.3867188 6.618408 4.3867188 10.590637l0 196.71198c0 8.2717285 -6.7055664 14.977295 -14.977295 14.977295l-97.53418 0c-8.271851 0 -14.977417 -6.7055664 -14.977417 -14.977295z" fill-rule="nonzero"></path><path fill="#ffffff" d="m1384.8575 1028.857l0 0c0 -1.7497559 1.4185791 -3.168213 3.168335 -3.168213l21.267822 0c0.84033203 0 1.6461182 0.3338623 2.2403564 0.9279785c0.5941162 0.5941162 0.92785645 1.4000244 0.92785645 2.2402344l0 20.631714c0 1.7497559 -1.418457 3.168213 -3.168213 3.168213l-21.267822 0c-1.7497559 0 -3.168335 -1.418457 -3.168335 -3.168213z" fill-rule="nonzero"></path><path fill="#ffffff" d="m1422.4513 1028.857l0 0c0 -1.7497559 1.418457 -3.168213 3.168213 -3.168213l21.267944 0c0.84020996 0 1.6461182 0.3338623 2.2402344 0.9279785c0.5942383 0.5941162 0.9279785 1.4000244 0.9279785 2.2402344l0 20.631714c0 1.7497559 -1.418457 3.168213 -3.168213 3.168213l-21.267944 0c-1.7497559 0 -3.168213 -1.418457 -3.168213 -3.168213z" fill-rule="nonzero"></path><path fill="#ffffff" d="m1384.8575 1065.3271l0 0c0 -1.7497559 1.4185791 -3.168213 3.168335 -3.168213l21.267822 0c0.84033203 0 1.6461182 0.33374023 2.2403564 0.92785645c0.5941162 0.5942383 0.92785645 1.4000244 0.92785645 2.2403564l0 20.631714c0 1.7497559 -1.418457 3.168213 -3.168213 3.168213l-21.267822 0c-1.7497559 0 -3.168335 -1.418457 -3.168335 -3.168213z" fill-rule="nonzero"></path><path fill="#ffffff" d="m1422.4513 1065.3271l0 0c0 -1.7497559 1.418457 -3.168213 3.168213 -3.168213l21.267944 0c0.84020996 0 1.6461182 0.33374023 2.2402344 0.92785645c0.5942383 0.5942383 0.9279785 1.4000244 0.9279785 2.2403564l0 20.631714c0 1.7497559 -1.418457 3.168213 -3.168213 3.168213l-21.267944 0c-1.7497559 0 -3.168213 -1.418457 -3.168213 -3.168213z" fill-rule="nonzero"></path><path fill="#ffffff" d="m1460.048 1065.3271l0 0c0 -1.7497559 1.418457 -3.168213 3.168213 -3.168213l21.267944 0c0.84020996 0 1.6461182 0.33374023 2.2402344 0.92785645c0.5941162 0.5942383 0.9279785 1.4000244 0.9279785 2.2403564l0 20.631714c0 1.7497559 -1.418457 3.168213 -3.168213 3.168213l-21.267944 0c-1.7497559 0 -3.168213 -1.418457 -3.168213 -3.168213z" fill-rule="nonzero"></path><path fill="#ffffff" d="m1460.048 1028.857l0 0c0 -1.7497559 1.418457 -3.168213 3.168213 -3.168213l21.267944 0c0.84020996 0 1.6461182 0.3338623 2.2402344 0.9279785c0.5941162 0.5941162 0.9279785 1.4000244 0.9279785 2.2402344l0 20.631714c0 1.7497559 -1.418457 3.168213 -3.168213 3.168213l-21.267944 0c-1.7497559 0 -3.168213 -1.418457 -3.168213 -3.168213z" fill-rule="nonzero"></path><path fill="#ffffff" d="m1384.8575 956.99506l0 0c0 -1.7497559 1.4185791 -3.168213 3.168335 -3.168213l21.267822 0c0.84033203 0 1.6461182 0.33380127 2.2403564 0.9279175c0.5941162 0.59417725 0.92785645 1.4000244 0.92785645 2.2402954l0 20.631714c0 1.7497559 -1.418457 3.168213 -3.168213 3.168213l-21.267822 0c-1.7497559 0 -3.168335 -1.418457 -3.168335 -3.168213z" fill-rule="nonzero"></path><path fill="#ffffff" d="m1422.4513 956.99506l0 0c0 -1.7497559 1.418457 -3.168213 3.168213 -3.168213l21.267944 0c0.84020996 0 1.6461182 0.33380127 2.2402344 0.9279175c0.5942383 0.59417725 0.9279785 1.4000244 0.9279785 2.2402954l0 20.631714c0 1.7497559 -1.418457 3.168213 -3.168213 3.168213l-21.267944 0c-1.7497559 0 -3.168213 -1.418457 -3.168213 -3.168213z" fill-rule="nonzero"></path><path fill="#ffffff" d="m1422.4513 993.4651l0 0c0 -1.7497559 1.418457 -3.168213 3.168213 -3.168213l21.267944 0c0.84020996 0 1.6461182 0.33380127 2.2402344 0.9279175c0.5942383 0.59417725 0.9279785 1.4000244 0.9279785 2.2402954l0 20.631714c0 1.7497559 -1.418457 3.168213 -3.168213 3.168213l-21.267944 0c-1.7497559 0 -3.168213 -1.418457 -3.168213 -3.168213z" fill-rule="nonzero"></path><path fill="#ffffff" d="m1460.048 993.4651l0 0c0 -1.7497559 1.418457 -3.168213 3.168213 -3.168213l21.267944 0c0.84020996 0 1.6461182 0.33380127 2.2402344 0.9279175c0.5941162 0.59417725 0.9279785 1.4000244 0.9279785 2.2402954l0 20.631714c0 1.7497559 -1.418457 3.168213 -3.168213 3.168213l-21.267944 0c-1.7497559 0 -3.168213 -1.418457 -3.168213 -3.168213z" fill-rule="nonzero"></path><path fill="#ffffff" d="m1460.048 956.99506l0 0c0 -1.7497559 1.418457 -3.168213 3.168213 -3.168213l21.267944 0c0.84020996 0 1.6461182 0.33380127 2.2402344 0.9279175c0.5941162 0.59417725 0.9279785 1.4000244 0.9279785 2.2402954l0 20.631714c0 1.7497559 -1.418457 3.168213 -3.168213 3.168213l-21.267944 0c-1.7497559 0 -3.168213 -1.418457 -3.168213 -3.168213z" fill-rule="nonzero"></path><path fill="#ffffff" d="m1384.8575 993.4651l0 0c0 -1.7497559 1.4185791 -3.168213 3.168335 -3.168213l21.267822 0c0.84033203 0 1.6461182 0.33380127 2.2403564 0.9279175c0.5941162 0.59417725 0.92785645 1.4000244 0.92785645 2.2402954l0 20.631714c0 1.7497559 -1.418457 3.168213 -3.168213 3.168213l-21.267822 0c-1.7497559 0 -3.168335 -1.418457 -3.168335 -3.168213z" fill-rule="nonzero"></path><path fill="#ffffff" d="m1384.8575 920.525l0 0c0 -1.7497559 1.4185791 -3.168213 3.168335 -3.168213l21.267822 0c0.84033203 0 1.6461182 0.33380127 2.2403564 0.9279175c0.5941162 0.59417725 0.92785645 1.4000244 0.92785645 2.2402954l0 20.631714c0 1.7497559 -1.418457 3.168213 -3.168213 3.168213l-21.267822 0c-1.7497559 0 -3.168335 -1.418457 -3.168335 -3.168213z" fill-rule="nonzero"></path><path fill="#ffffff" d="m1422.4513 920.525l0 0c0 -1.7497559 1.418457 -3.168213 3.168213 -3.168213l21.267944 0c0.84020996 0 1.6461182 0.33380127 2.2402344 0.9279175c0.5942383 0.59417725 0.9279785 1.4000244 0.9279785 2.2402954l0 20.631714c0 1.7497559 -1.418457 3.168213 -3.168213 3.168213l-21.267944 0c-1.7497559 0 -3.168213 -1.418457 -3.168213 -3.168213z" fill-rule="nonzero"></path><path fill="#ffffff" d="m1460.048 920.525l0 0c0 -1.7497559 1.418457 -3.168213 3.168213 -3.168213l21.267944 0c0.84020996 0 1.6461182 0.33380127 2.2402344 0.9279175c0.5941162 0.59417725 0.9279785 1.4000244 0.9279785 2.2402954l0 20.631714c0 1.7497559 -1.418457 3.168213 -3.168213 3.168213l-21.267944 0c-1.7497559 0 -3.168213 -1.418457 -3.168213 -3.168213z" fill-rule="nonzero"></path><path fill="#41413c" d="m1058.8295 956.9026l0 0c0 -6.567627 5.3240967 -11.891724 11.891724 -11.891724l77.43982 0c3.1539307 0 6.178589 1.2528687 8.408691 3.4829712c2.2301025 2.2301636 3.4830322 5.254883 3.4830322 8.408752l0 156.18457c0 6.567627 -5.3240967 11.891724 -11.891724 11.891724l-77.43982 0c-6.567627 0 -11.891724 -5.3240967 -11.891724 -11.891724z" fill-rule="nonzero"></path><path fill="#ffffff" d="m1068.6328 1048.6537l0 0c0 -1.3892822 1.1262207 -2.515503 2.515503 -2.515503l16.88623 0c0.66711426 0 1.3070068 0.26501465 1.7786865 0.7368164c0.47180176 0.4716797 0.7368164 1.1115723 0.7368164 1.7786865l0 16.381104c0 1.3892822 -1.1262207 2.515503 -2.515503 2.515503l-16.88623 0c-1.3892822 0 -2.515503 -1.1262207 -2.515503 -2.515503z" fill-rule="nonzero"></path><path fill="#ffffff" d="m1098.4813 1048.6537l0 0c0 -1.3892822 1.1262207 -2.515503 2.515503 -2.515503l16.88623 0c0.66711426 0 1.3070068 0.26501465 1.7786865 0.7368164c0.47180176 0.4716797 0.7368164 1.1115723 0.7368164 1.7786865l0 16.381104c0 1.3892822 -1.1262207 2.515503 -2.515503 2.515503l-16.88623 0c-1.3892822 0 -2.515503 -1.1262207 -2.515503 -2.515503z" fill-rule="nonzero"></path><path fill="#ffffff" d="m1068.6328 1077.61l0 0c0 -1.3892822 1.1262207 -2.515503 2.515503 -2.515503l16.88623 0c0.66711426 0 1.3070068 0.26501465 1.7786865 0.7368164c0.47180176 0.47180176 0.7368164 1.1115723 0.7368164 1.7786865l0 16.381104c0 1.3892822 -1.1262207 2.515503 -2.515503 2.515503l-16.88623 0c-1.3892822 0 -2.515503 -1.1262207 -2.515503 -2.515503z" fill-rule="nonzero"></path><path fill="#ffffff" d="m1098.4813 1077.61l0 0c0 -1.3892822 1.1262207 -2.515503 2.515503 -2.515503l16.88623 0c0.66711426 0 1.3070068 0.26501465 1.7786865 0.7368164c0.47180176 0.47180176 0.7368164 1.1115723 0.7368164 1.7786865l0 16.381104c0 1.3892822 -1.1262207 2.515503 -2.515503 2.515503l-16.88623 0c-1.3892822 0 -2.515503 -1.1262207 -2.515503 -2.515503z" fill-rule="nonzero"></path><path fill="#ffffff" d="m1128.3322 1077.61l0 0c0 -1.3892822 1.1262207 -2.515503 2.515503 -2.515503l16.88623 0c0.66711426 0 1.3070068 0.26501465 1.7786865 0.7368164c0.47180176 0.47180176 0.7368164 1.1115723 0.7368164 1.7786865l0 16.381104c0 1.3892822 -1.1262207 2.515503 -2.515503 2.515503l-16.88623 0c-1.3892822 0 -2.515503 -1.1262207 -2.515503 -2.515503z" fill-rule="nonzero"></path><path fill="#ffffff" d="m1128.3322 1048.6537l0 0c0 -1.3892822 1.1262207 -2.515503 2.515503 -2.515503l16.88623 0c0.66711426 0 1.3070068 0.26501465 1.7786865 0.7368164c0.47180176 0.4716797 0.7368164 1.1115723 0.7368164 1.7786865l0 16.381104c0 1.3892822 -1.1262207 2.515503 -2.515503 2.515503l-16.88623 0c-1.3892822 0 -2.515503 -1.1262207 -2.515503 -2.515503z" fill-rule="nonzero"></path><path fill="#ffffff" d="m1068.6328 991.5969l0 0c0 -1.3892212 1.1262207 -2.515442 2.515503 -2.515442l16.88623 0c0.66711426 0 1.3070068 0.26501465 1.7786865 0.7367554c0.47180176 0.47174072 0.7368164 1.1115723 0.7368164 1.7786865l0 16.381104c0 1.3892822 -1.1262207 2.515503 -2.515503 2.515503l-16.88623 0c-1.3892822 0 -2.515503 -1.1262207 -2.515503 -2.515503z" fill-rule="nonzero"></path><path fill="#ffffff" d="m1098.4813 991.5969l0 0c0 -1.3892212 1.1262207 -2.515442 2.515503 -2.515442l16.88623 0c0.66711426 0 1.3070068 0.26501465 1.7786865 0.7367554c0.47180176 0.47174072 0.7368164 1.1115723 0.7368164 1.7786865l0 16.381104c0 1.3892822 -1.1262207 2.515503 -2.515503 2.515503l-16.88623 0c-1.3892822 0 -2.515503 -1.1262207 -2.515503 -2.515503z" fill-rule="nonzero"></path><path fill="#ffffff" d="m1098.4813 1020.5533l0 0c0 -1.3892822 1.1262207 -2.515503 2.515503 -2.515503l16.88623 0c0.66711426 0 1.3070068 0.26501465 1.7786865 0.7367554c0.47180176 0.47174072 0.7368164 1.1115723 0.7368164 1.7787476l0 16.381042c0 1.3892822 -1.1262207 2.515503 -2.515503 2.515503l-16.88623 0c-1.3892822 0 -2.515503 -1.1262207 -2.515503 -2.515503z" fill-rule="nonzero"></path><path fill="#ffffff" d="m1128.3322 1020.5533l0 0c0 -1.3892822 1.1262207 -2.515503 2.515503 -2.515503l16.88623 0c0.66711426 0 1.3070068 0.26501465 1.7786865 0.7367554c0.47180176 0.47174072 0.7368164 1.1115723 0.7368164 1.7787476l0 16.381042c0 1.3892822 -1.1262207 2.515503 -2.515503 2.515503l-16.88623 0c-1.3892822 0 -2.515503 -1.1262207 -2.515503 -2.515503z" fill-rule="nonzero"></path><path fill="#ffffff" d="m1128.3322 991.5969l0 0c0 -1.3892212 1.1262207 -2.515442 2.515503 -2.515442l16.88623 0c0.66711426 0 1.3070068 0.26501465 1.7786865 0.7367554c0.47180176 0.47174072 0.7368164 1.1115723 0.7368164 1.7786865l0 16.381104c0 1.3892822 -1.1262207 2.515503 -2.515503 2.515503l-16.88623 0c-1.3892822 0 -2.515503 -1.1262207 -2.515503 -2.515503z" fill-rule="nonzero"></path><path fill="#ffffff" d="m1068.6328 1020.5533l0 0c0 -1.3892822 1.1262207 -2.515503 2.515503 -2.515503l16.88623 0c0.66711426 0 1.3070068 0.26501465 1.7786865 0.7367554c0.47180176 0.47174072 0.7368164 1.1115723 0.7368164 1.7787476l0 16.381042c0 1.3892822 -1.1262207 2.515503 -2.515503 2.515503l-16.88623 0c-1.3892822 0 -2.515503 -1.1262207 -2.515503 -2.515503z" fill-rule="nonzero"></path><path fill="#ffffff" d="m1068.6328 962.6406l0 0c0 -1.3892822 1.1262207 -2.515503 2.515503 -2.515503l16.88623 0c0.66711426 0 1.3070068 0.26501465 1.7786865 0.7367554c0.47180176 0.47174072 0.7368164 1.1115723 0.7368164 1.7787476l0 16.381042c0 1.3892822 -1.1262207 2.515503 -2.515503 2.515503l-16.88623 0c-1.3892822 0 -2.515503 -1.1262207 -2.515503 -2.515503z" fill-rule="nonzero"></path><path fill="#ffffff" d="m1098.4813 962.6406l0 0c0 -1.3892822 1.1262207 -2.515503 2.515503 -2.515503l16.88623 0c0.66711426 0 1.3070068 0.26501465 1.7786865 0.7367554c0.47180176 0.47174072 0.7368164 1.1115723 0.7368164 1.7787476l0 16.381042c0 1.3892822 -1.1262207 2.515503 -2.515503 2.515503l-16.88623 0c-1.3892822 0 -2.515503 -1.1262207 -2.515503 -2.515503z" fill-rule="nonzero"></path><path fill="#ffffff" d="m1128.3322 962.6406l0 0c0 -1.3892822 1.1262207 -2.515503 2.515503 -2.515503l16.88623 0c0.66711426 0 1.3070068 0.26501465 1.7786865 0.7367554c0.47180176 0.47174072 0.7368164 1.1115723 0.7368164 1.7787476l0 16.381042c0 1.3892822 -1.1262207 2.515503 -2.515503 2.515503l-16.88623 0c-1.3892822 0 -2.515503 -1.1262207 -2.515503 -2.515503z" fill-rule="nonzero"></path><path fill="#778844" d="m1336.1991 1072.857l0 0c0 -3.753296 3.0427246 -6.7960205 6.7961426 -6.7960205l44.25647 0c1.8023682 0 3.5310059 0.71606445 4.805542 1.9904785c1.2744141 1.2745361 1.9904785 3.0031738 1.9904785 4.805542l0 45.332397c0 3.753296 -3.0427246 6.7960205 -6.7960205 6.7960205l-44.25647 0c-3.753418 0 -6.7961426 -3.0427246 -6.7961426 -6.7960205z" fill-rule="nonzero"></path><path fill="#778844" d="m1321.1577 1085.4353l43.9657 -47.37964l43.9657 47.37964z" fill-rule="nonzero"></path><path fill="#778844" d="m1322.1355 1088.269l0 0c-2.552124 -2.4229736 -2.6547852 -6.4543457 -0.22949219 -9.00415l37.955322 -39.90442c1.1646729 -1.2243652 2.7685547 -1.9365234 4.458618 -1.9796143c1.6901855 -0.04309082 3.328125 0.5864258 4.553711 1.75l1.3927002 1.3221436l0 0c2.552124 2.4229736 2.6547852 6.4542236 0.22949219 9.00415l-37.955322 39.90442c-2.425293 2.5498047 -6.460327 2.652588 -9.012329 0.22961426z" fill-rule="nonzero"></path><path fill="#778844" d="m1360.9823 1039.3396l0 0c2.5272217 -2.4527588 6.562256 -2.3903809 9.012451 0.1394043l38.299683 39.542725c1.1766357 1.2148438 1.822998 2.8477783 1.796875 4.539673c-0.026245117 1.6918945 -0.72265625 3.3040771 -1.9362793 4.4819336l-1.3791504 1.338501l0 0c-2.5273438 2.4527588 -6.562256 2.3903809 -9.012451 -0.1394043l-38.299805 -39.542725c-2.4501953 -2.5297852 -2.3876953 -6.5688477 0.13952637 -9.021606z" fill-rule="nonzero"></path><path fill="#ffffff" d="m1344.8906 1070.7605l0 0c0 -1.024292 0.83032227 -1.8546143 1.8544922 -1.8546143l12.449585 0c0.4918213 0 0.96362305 0.19543457 1.3114014 0.5432129c0.34777832 0.34777832 0.5432129 0.819458 0.5432129 1.3114014l0 12.077148c0 1.0241699 -0.83032227 1.8544922 -1.8546143 1.8544922l-12.449585 0c-1.0241699 0 -1.8544922 -0.83032227 -1.8544922 -1.8544922z" fill-rule="nonzero"></path><path fill="#ffffff" d="m1369.1959 1070.7605l0 0c0 -1.024292 0.83032227 -1.8546143 1.8544922 -1.8546143l12.449585 0c0.4918213 0 0.96362305 0.19543457 1.3114014 0.5432129c0.34777832 0.34777832 0.5432129 0.819458 0.5432129 1.3114014l0 12.077148c0 1.0241699 -0.83032227 1.8544922 -1.8546143 1.8544922l-12.449585 0c-1.0241699 0 -1.8544922 -0.83032227 -1.8544922 -1.8544922z" fill-rule="nonzero"></path><path fill="#ffffff" d="m1344.8906 1092.1089l0 0c0 -1.024292 0.83032227 -1.8546143 1.8544922 -1.8546143l12.449585 0c0.4918213 0 0.96362305 0.19543457 1.3114014 0.5432129c0.34777832 0.34777832 0.5432129 0.819458 0.5432129 1.3114014l0 12.077148c0 1.0241699 -0.83032227 1.8544922 -1.8546143 1.8544922l-12.449585 0c-1.0241699 0 -1.8544922 -0.83032227 -1.8544922 -1.8544922z" fill-rule="nonzero"></path><path fill="#ffffff" d="m1369.1959 1092.1089l0 0c0 -1.024292 0.83032227 -1.8546143 1.8544922 -1.8546143l12.449585 0c0.4918213 0 0.96362305 0.19543457 1.3114014 0.5432129c0.34777832 0.34777832 0.5432129 0.819458 0.5432129 1.3114014l0 12.077148c0 1.0241699 -0.83032227 1.8544922 -1.8546143 1.8544922l-12.449585 0c-1.0241699 0 -1.8544922 -0.83032227 -1.8544922 -1.8544922z" fill-rule="nonzero"></path></g></svg>

