<?xml version="1.0" standalone="yes"?>

<svg version="1.1" viewBox="0.0 0.0 1500.0 1125.0" fill="none" stroke="none" stroke-linecap="square" stroke-miterlimit="10" xmlns="http://www.w3.org/2000/svg" xmlns:xlink="http://www.w3.org/1999/xlink"><clipPath id="g2f990e248_0_0.0"><path d="m0 0l1500.0 0l0 1125.0l-1500.0 0l0 -1125.0z" clip-rule="nonzero"></path></clipPath><g clip-path="url(#g2f990e248_0_0.0)"><path fill="#d9d9d9" d="m0 0l1500.0 0l0 1125.0l-1500.0 0z" fill-rule="nonzero"></path><path fill="#778844" d="m161.23253 630.3315l0 0c-24.23555 0.004760742 -46.632393 -12.921204 -58.752907 -33.908203c-12.120514 -20.987 -12.123047 -46.846252 -0.0066452026 -67.83563c12.116394 -20.98938 34.51071 -33.91971 58.746246 -33.91971l0 67.83176z" fill-rule="nonzero"></path><path fill="#778844" d="m156.24393 457.64206l0 0c0 -0.9159546 0.7425232 -1.6584778 1.6584625 -1.6584778l6.633667 0l0 0c0.43984985 0 0.86169434 0.17474365 1.1727142 0.4857483c0.3110199 0.31103516 0.4857483 0.73287964 0.4857483 1.1727295l0 24.008057c0 0.9159546 -0.74250793 1.6584778 -1.6584625 1.6584778l-6.633667 0c-0.91593933 0 -1.6584625 -0.7425232 -1.6584625 -1.6584778z" fill-rule="nonzero"></path><path fill="#778844" d="m105.1143 472.44498l0 0c-0.45746613 -0.7921448 -0.18590546 -1.8047485 0.60653687 -2.2616882l5.7392426 -3.3093872l0 0c0.38054657 -0.21942139 0.8327713 -0.27874756 1.2572021 -0.16491699c0.42442322 0.11380005 0.7862854 0.3914795 1.0059662 0.7718811l12.005867 20.789215c0.45746613 0.7921448 0.18591309 1.804718 -0.60652924 2.2616577l-5.7392426 3.3093872c-0.79244995 0.4569397 -1.8057022 0.18521118 -2.2631683 -0.6069336z" fill-rule="nonzero"></path><path fill="#778844" d="m66.19889 513.0895l0 0c-0.7921448 -0.4574585 -1.0638809 -1.4707336 -0.6069412 -2.263153l3.3093796 -5.739258l0 0c0.21943665 -0.3805542 0.58099365 -0.65823364 1.0051422 -0.77197266c0.42414093 -0.11376953 0.8761368 -0.054229736 1.2565384 0.16543579l20.789215 12.005859c0.7921448 0.4574585 1.0638809 1.4707642 0.6069336 2.2631836l-3.3093796 5.739258c-0.4569397 0.79241943 -1.4695282 1.0639648 -2.261673 0.60650635z" fill-rule="nonzero"></path><path fill="#778844" d="m56.357357 567.46375l0 0c-0.913887 0 -1.6547394 -0.74090576 -1.6547394 -1.6547852l0 -6.6187134l0 0c0 -0.4389038 0.17433548 -0.85980225 0.4846611 -1.170105c0.3103218 -0.31030273 0.7312126 -0.48468018 1.1700783 -0.48468018l24.01553 0c0.913887 0 1.6547394 0.7408447 1.6547394 1.6547852l0 6.6187134c0 0.9138794 -0.74085236 1.6547852 -1.6547394 1.6547852z" fill-rule="nonzero"></path><path fill="#778844" d="m113.72323 659.43427l0 0c-0.45746613 0.7921753 -1.470726 1.0639038 -2.2631683 0.6069336l-5.7392426 -3.3093262l0 0c-0.38054657 -0.21948242 -0.65823364 -0.58099365 -0.7719803 -1.005188c-0.11374664 -0.4241333 -0.054237366 -0.87609863 0.16545105 -1.2565308l12.005867 -20.789185c0.45746613 -0.7921753 1.470726 -1.0639038 2.2631683 -0.6069336l5.7392426 3.3093872c0.7924423 0.45690918 1.064003 1.4694824 0.60652924 2.2616577z" fill-rule="nonzero"></path><path fill="#778844" d="m73.07872 620.51886l0 0c-0.7921448 0.4574585 -1.8047333 0.18591309 -2.261673 -0.6065674l-3.3093796 -5.739197l0 0c-0.21943665 -0.3805542 -0.27876282 -0.8328247 -0.16493988 -1.2572021c0.11382294 -0.42443848 0.39147186 -0.7863159 0.7718735 -1.0059814l20.789215 -12.005859c0.7921448 -0.4574585 1.8047333 -0.18591309 2.261673 0.60650635l3.3093796 5.739258c0.45694733 0.79241943 0.18521118 1.8057251 -0.6069336 2.2631836z" fill-rule="nonzero"></path><path fill="#778844" d="m156.24393 643.34924l0 0c0 -0.91589355 0.7425232 -1.6584473 1.6584625 -1.6584473l6.633667 0l0 0c0.43984985 0 0.86169434 0.17474365 1.1727142 0.4857788c0.3110199 0.31103516 0.4857483 0.7328491 0.4857483 1.1726685l0 24.008118c0 0.9159546 -0.74250793 1.6584473 -1.6584625 1.6584473l-6.633667 0c-0.91593933 0 -1.6584625 -0.7424927 -1.6584625 -1.6584473z" fill-rule="nonzero"></path><path fill="#778844" d="m174.5985 468.12863l0 0c0 -4.4599 3.6154633 -8.075378 8.075363 -8.075378l3.191452 0l0 0c2.1417236 0 4.195709 0.85079956 5.710144 2.3652344c1.5144196 1.5144043 2.365219 3.5684204 2.365219 5.710144l0 188.74216c0 4.4599 -3.6154633 8.075317 -8.075363 8.075317l-3.191452 0c-4.4599 0 -8.075363 -3.6154175 -8.075363 -8.075317z" fill-rule="nonzero"></path><path fill="#778844" d="m261.16843 506.93234l0 0c3.8608704 -2.2289734 8.796356 -0.90530396 11.023743 2.9565125l1.5938721 2.7634888l0 0c1.0696411 1.8544922 1.3589172 4.0582275 0.80422974 6.126465c-0.5546875 2.0682373 -1.907898 3.831482 -3.761963 4.9018555l-82.461044 47.60675c-3.8608856 2.229004 -8.796387 0.9053345 -11.023758 -2.956482l-1.5938873 -2.7634277c-2.227356 -3.8618164 -0.9031372 -8.799377 2.9577332 -11.028381z" fill-rule="nonzero"></path><path fill="#778844" d="m270.8373 602.23376l0 0c3.8588562 2.2286987 5.177246 7.161865 2.9447327 11.018494l-1.5975647 2.7597656l0 0c-1.072113 1.8520508 -2.8364258 3.203064 -4.904846 3.7558594c-2.0684204 0.5527954 -4.271515 0.26208496 -6.1246033 -0.8081665l-82.46837 -47.630127c-3.8588562 -2.2287598 -5.1772614 -7.161865 -2.9447327 -11.018555l1.59758 -2.7597656c2.2325134 -3.8566284 7.1705627 -5.1763306 11.029419 -2.9476318z" fill-rule="nonzero"></path><path fill="#778844" d="m207.46628 475.44443l0 0c3.1554413 -3.1554565 8.271423 -3.1554565 11.426865 0l2.2580109 2.2579956l0 0c1.5152893 1.5152893 2.3665771 3.5704956 2.3665771 5.71344c0 2.1429443 -0.85128784 4.19812 -2.3665771 5.71344l-25.401535 25.40152c-3.1554413 3.1554565 -8.271423 3.1554565 -11.426865 0l-2.2579956 -2.2579956c-3.1554413 -3.1554565 -3.1554413 -8.271423 0 -11.42688z" fill-rule="nonzero"></path><path fill="#778844" d="m221.14394 637.71246l0 0c3.1554413 3.1553955 3.1554413 8.271423 0 11.426819l-2.2579956 2.2579956l0 0c-1.5153046 1.5153198 -3.5704803 2.3666382 -5.71344 2.3666382c-2.1429443 0 -4.1981354 -0.85131836 -5.7134247 -2.3666382l-25.401535 -25.40149c-3.1554413 -3.1554565 -3.1554413 -8.271423 0 -11.42688l2.2580109 -2.2579956c3.1554413 -3.1554565 8.271423 -3.1554565 11.426865 0z" fill-rule="nonzero"></path><path fill="#778844" d="m247.68417 623.2361l0 0c1.1546936 4.310425 -1.4035034 8.740967 -5.7138824 9.895935l-3.0844574 0.82647705l0 0c-2.0699158 0.5545654 -4.2753296 0.2642212 -6.131073 -0.807312c-1.8557281 -1.0714722 -3.209793 -2.8363037 -3.7642975 -4.90625l-9.302124 -34.724915c-1.1546936 -4.310425 1.4035034 -8.740967 5.713867 -9.895935l3.0844727 -0.826416c4.310364 -1.1549683 8.740677 1.4030762 9.895355 5.713501z" fill-rule="nonzero"></path><path fill="#778844" d="m262.277 569.3616l0 0c4.310425 -1.1546631 8.740997 1.4035034 9.895935 5.713867l0.82644653 3.0844727l0 0c0.55462646 2.0699463 0.2642212 4.2753296 -0.807251 6.1311035c-1.0715027 1.8557129 -2.8363647 3.2097778 -4.906311 3.7642822l-34.724884 9.302124c-4.31044 1.1546631 -8.740997 -1.4035034 -9.89592 -5.713867l-0.8264618 -3.0844727c-1.1549377 -4.310364 1.4031067 -8.740662 5.7135468 -9.895386z" fill-rule="nonzero"></path><path fill="#778844" d="m229.54044 497.36624l0 0c1.1546783 -4.310425 5.5849915 -6.868469 9.8953705 -5.7135315l3.0844574 0.82644653l0 0c2.0699158 0.55462646 3.8347778 1.9088135 4.9063416 3.7646484c1.0715485 1.8558655 1.36203 4.0613403 0.8075409 6.1312866l-9.302139 34.724884c-1.1546783 4.310425 -5.5849915 6.868469 -9.8953705 5.713562l-3.0844574 -0.82647705c-4.310379 -1.1549072 -6.868561 -5.5855103 -5.7138824 -9.895935z" fill-rule="nonzero"></path><path fill="#778844" d="m268.89944 536.94196l0 0c4.3104553 1.1547241 6.8684998 5.585022 5.713562 9.895386l-0.82647705 3.0844727l0 0c-0.55459595 2.0698853 -1.908783 3.8347778 -3.7646484 4.906311c-1.855835 1.0715942 -4.0613403 1.3620605 -6.1312866 0.80755615l-34.72487 -9.302124c-4.31044 -1.1547241 -6.8684845 -5.585022 -5.713562 -9.895386l0.8264618 -3.0844727c1.1549377 -4.310364 5.585495 -6.8685303 9.895935 -5.713867z" fill-rule="nonzero"></path><path fill="#41413c" d="m121.40218 575.4115l0 0c0 -1.74646 1.4157791 -3.1622314 3.1622314 -3.1622314l12.648537 0l0 0c0.8386688 0 1.6430054 0.33319092 2.2360382 0.9262085c0.59303284 0.5930176 0.92619324 1.3973389 0.92619324 2.236023l0 12.64856c0 1.74646 -1.4157867 3.1622314 -3.1622314 3.1622314l-12.648537 0c-1.7464523 0 -3.1622314 -1.4157715 -3.1622314 -3.1622314z" fill-rule="nonzero"></path><path fill="#ffffff" d="m110.31622 554.29663l0 0c0 -11.361877 9.210602 -20.572449 20.572464 -20.572449l0 0c5.4561462 0 10.688843 2.1674194 14.546921 6.0255127c3.8580933 3.8580933 6.025543 9.090759 6.025543 14.546936l0 0c0 11.361877 -9.210617 20.572449 -20.572464 20.572449l0 0c-11.361862 0 -20.572464 -9.210571 -20.572464 -20.572449z" fill-rule="nonzero"></path><path fill="#ffffff" d="m119.50856 566.41223l0 0c0 -2.0950928 1.6983871 -3.793457 3.7934494 -3.793457l15.173347 0l0 0c1.0060883 0 1.9709625 0.3996582 2.682373 1.111084c0.7114105 0.7114258 1.1110687 1.6762695 1.1110687 2.682373l0 15.17334c0 2.0950317 -1.6983795 3.793457 -3.7934418 3.793457l-15.173347 0c-2.0950623 0 -3.7934494 -1.6984253 -3.7934494 -3.793457z" fill-rule="nonzero"></path></g></svg>

