<?xml version="1.0" standalone="yes"?>

<svg version="1.1" viewBox="0.0 0.0 1500.0 1125.0" fill="none" stroke="none" stroke-linecap="square" stroke-miterlimit="10" xmlns="http://www.w3.org/2000/svg" xmlns:xlink="http://www.w3.org/1999/xlink"><clipPath id="g3125efc9a_0_0.0"><path d="m0 0l1500.0 0l0 1125.0l-1500.0 0l0 -1125.0z" clip-rule="nonzero"></path></clipPath><g clip-path="url(#g3125efc9a_0_0.0)"><path fill="#ffffff" d="m0 0l1500.0 0l0 1125.0l-1500.0 0z" fill-rule="nonzero"></path><path fill="#45a748" d="m161.23253 630.3315l0 0c-24.235535 0.004760742 -46.632385 -12.921204 -58.7529 -33.908203c-12.120514 -20.987 -12.123047 -46.84619 -0.006652832 -67.83563c12.116402 -20.98935 34.51071 -33.91971 58.74626 -33.91971l0 67.83176z" fill-rule="nonzero"></path><path fill="#45a748" d="m156.24394 457.64206l0 0c0 -0.9159241 0.7425232 -1.6584473 1.6584625 -1.6584473l6.633667 0l0 0c0.43984985 0 0.86169434 0.17471313 1.1727142 0.4857483c0.3110199 0.31100464 0.4857483 0.7328491 0.4857483 1.172699l0 24.008087c0 0.9159546 -0.7425232 1.6584778 -1.6584625 1.6584778l-6.633667 0c-0.91593933 0 -1.6584625 -0.7425232 -1.6584625 -1.6584778z" fill-rule="nonzero"></path><path fill="#45a748" d="m105.11431 472.44498l0 0c-0.45746613 -0.7921448 -0.18591309 -1.804718 0.60653687 -2.2616577l5.7392426 -3.3093872l0 0c0.38054657 -0.21942139 0.8327713 -0.27874756 1.2572021 -0.16494751c0.42442322 0.11383057 0.7862854 0.3914795 1.0059662 0.7718811l12.005867 20.789215c0.45747375 0.7921448 0.18591309 1.8047485 -0.60652924 2.2616882l-5.7392426 3.3093567c-0.7924423 0.4569702 -1.8057022 0.18521118 -2.2631683 -0.6069336z" fill-rule="nonzero"></path><path fill="#45a748" d="m66.19889 513.0895l0 0c-0.7921448 -0.4574585 -1.0638733 -1.4707031 -0.6069336 -2.263153l3.3093796 -5.7392273l0 0c0.21942902 -0.3805542 0.58099365 -0.65823364 1.0051346 -0.7720032c0.42414856 -0.11373901 0.8761368 -0.054229736 1.2565384 0.16546631l20.789215 12.00589c0.7921448 0.4574585 1.0638809 1.4707031 0.6069412 2.2631226l-3.3093796 5.739258c-0.45694733 0.79248047 -1.4695282 1.0640259 -2.2616806 0.6065674z" fill-rule="nonzero"></path><path fill="#45a748" d="m56.35736 567.46375l0 0c-0.91389084 0 -1.6547394 -0.7408447 -1.6547394 -1.6547241l0 -6.6187744l0 0c0 -0.43884277 0.17433548 -0.8597412 0.4846611 -1.170105c0.3103218 -0.31030273 0.7312126 -0.48461914 1.1700783 -0.48461914l24.015533 0c0.913887 0 1.6547394 0.7408447 1.6547394 1.6547241l0 6.6187744c0 0.9138794 -0.74085236 1.6547241 -1.6547394 1.6547241z" fill-rule="nonzero"></path><path fill="#45a748" d="m113.723236 659.4343l0 0c-0.45746613 0.79211426 -1.470726 1.0638428 -2.2631683 0.6069336l-5.7392426 -3.3093872l0 0c-0.38054657 -0.21942139 -0.65823364 -0.58099365 -0.7719803 -1.005127c-0.11375427 -0.4241333 -0.054237366 -0.87615967 0.16544342 -1.2565308l12.005875 -20.789246c0.45746613 -0.79211426 1.470726 -1.0638428 2.2631683 -0.6069336l5.7392426 3.3093872c0.7924423 0.4569702 1.064003 1.4695435 0.60653687 2.2616577z" fill-rule="nonzero"></path><path fill="#45a748" d="m73.07873 620.51886l0 0c-0.7921448 0.4574585 -1.8047333 0.18591309 -2.2616806 -0.60650635l-3.3093796 -5.739258l0 0c-0.21942902 -0.3805542 -0.27876282 -0.8327637 -0.16493988 -1.2572021c0.11382294 -0.42443848 0.3914795 -0.7862549 0.7718811 -1.0059814l20.789215 -12.005859c0.7921448 -0.4574585 1.8047256 -0.18591309 2.261673 0.6065674l3.3093796 5.739197c0.45694733 0.79248047 0.18521118 1.8057251 -0.6069336 2.2631836z" fill-rule="nonzero"></path><path fill="#45a748" d="m156.24394 643.3493l0 0c0 -0.9159546 0.7425232 -1.6584473 1.6584625 -1.6584473l6.633667 0l0 0c0.43984985 0 0.86169434 0.17468262 1.1727142 0.48571777c0.3110199 0.31103516 0.4857483 0.7328491 0.4857483 1.1727295l0 24.008057c0 0.9159546 -0.7425232 1.6585083 -1.6584625 1.6585083l-6.633667 0c-0.91593933 0 -1.6584625 -0.7425537 -1.6584625 -1.6585083z" fill-rule="nonzero"></path><path fill="#45a748" d="m174.59851 468.12863l0 0c0 -4.4599 3.6154633 -8.075348 8.075348 -8.075348l3.1914673 0l0 0c2.1417084 0 4.195709 0.85079956 5.710144 2.3652039c1.5144196 1.5144348 2.3652039 3.5684204 2.3652039 5.710144l0 188.74216c0 4.4599 -3.615448 8.075378 -8.075348 8.075378l-3.1914673 0c-4.4598846 0 -8.075348 -3.6154785 -8.075348 -8.075378z" fill-rule="nonzero"></path><path fill="#45a748" d="m261.16843 506.93237l0 0c3.8608704 -2.2289734 8.796387 -0.90530396 11.023743 2.9565125l1.5939026 2.7634583l0 0c1.0696106 1.8544922 1.3589172 4.0582886 0.80422974 6.126465c-0.5546875 2.0682373 -1.907898 3.831482 -3.761963 4.9018555l-82.46106 47.60681c-3.8608856 2.2289429 -8.796387 0.90527344 -11.023758 -2.956482l-1.5938873 -2.7634888c-2.2273712 -3.8618164 -0.9031372 -8.799377 2.9577332 -11.02832z" fill-rule="nonzero"></path><path fill="#45a748" d="m270.8373 602.23376l0 0c3.8588562 2.2286987 5.1772766 7.161865 2.9447327 11.018494l-1.5975647 2.7598267l0 0c-1.0720825 1.8519897 -2.8364258 3.203003 -4.904846 3.7557983c-2.0684204 0.5527954 -4.2714844 0.26208496 -6.1245728 -0.8081665l-82.46838 -47.630127c-3.8588562 -2.2286987 -5.1772614 -7.161865 -2.9447327 -11.018494l1.59758 -2.7598267c2.2325134 -3.8566284 7.1705627 -5.1763306 11.029419 -2.9476318z" fill-rule="nonzero"></path><path fill="#45a748" d="m207.4663 475.44443l0 0c3.1554413 -3.155426 8.271423 -3.155426 11.426865 0l2.2580109 2.2580261l0 0c1.5152893 1.5152893 2.3665771 3.570465 2.3665771 5.7134094c0 2.1429749 -0.85128784 4.1981506 -2.3665771 5.71344l-25.401535 25.40152c-3.1554413 3.1554565 -8.271423 3.1554565 -11.426865 0l-2.2580109 -2.2579956c-3.1554413 -3.155426 -3.1554413 -8.271423 0 -11.426849z" fill-rule="nonzero"></path><path fill="#45a748" d="m221.14395 637.71246l0 0c3.1554413 3.1554565 3.1554413 8.271423 0 11.42688l-2.2579956 2.2579956l0 0c-1.5153046 1.5153198 -3.5704803 2.3665771 -5.71344 2.3665771c-2.1429443 0 -4.1981354 -0.8512573 -5.7134247 -2.3665771l-25.401535 -25.40155c-3.1554413 -3.1553955 -3.1554413 -8.271423 0 -11.426819l2.2580109 -2.2580566c3.1554413 -3.1553955 8.271423 -3.1553955 11.426865 0z" fill-rule="nonzero"></path><path fill="#45a748" d="m247.68419 623.2361l0 0c1.1546936 4.310486 -1.4035034 8.741028 -5.7138824 9.895935l-3.0844574 0.82647705l0 0c-2.0699158 0.55462646 -4.2753296 0.2642212 -6.131073 -0.807251c-1.8557281 -1.0715332 -3.209793 -2.8363647 -3.7642975 -4.906311l-9.302139 -34.724854c-1.1546783 -4.310486 1.4035187 -8.741028 5.7138824 -9.895935l3.0844727 -0.82647705c4.310364 -1.1549683 8.740677 1.4030762 9.895355 5.713562z" fill-rule="nonzero"></path><path fill="#45a748" d="m262.277 569.36163l0 0c4.3104553 -1.1547241 8.740997 1.4035034 9.895935 5.713867l0.82644653 3.0844727l0 0c0.55462646 2.0698853 0.2642517 4.2753296 -0.807251 6.1310425c-1.0715027 1.8557129 -2.8363342 3.2097778 -4.9062805 3.7642822l-34.7249 9.302124c-4.31044 1.1547241 -8.740997 -1.4035034 -9.895935 -5.713867l-0.82644653 -3.0844727c-1.1549377 -4.310364 1.4031067 -8.740662 5.7135468 -9.895325z" fill-rule="nonzero"></path><path fill="#45a748" d="m229.54045 497.36627l0 0c1.1546783 -4.3104553 5.5849915 -6.8684998 9.8953705 -5.713562l3.0844574 0.82647705l0 0c2.0699158 0.55459595 3.8347778 1.908783 4.9063416 3.7646484c1.0715485 1.855835 1.36203 4.0613403 0.8075409 6.1312866l-9.302139 34.724854c-1.1546783 4.310486 -5.5849915 6.8685303 -9.8953705 5.713562l-3.0844574 -0.826416c-4.310379 -1.1549683 -6.868561 -5.5855103 -5.7138824 -9.895935z" fill-rule="nonzero"></path><path fill="#45a748" d="m268.89948 536.942l0 0c4.310425 1.1546631 6.868469 5.584961 5.7135315 9.895325l-0.82644653 3.0844727l0 0c-0.55462646 2.0699463 -1.9088135 3.8347778 -3.7646484 4.906372c-1.8558655 1.0715332 -4.0613403 1.3619995 -6.1312866 0.8074951l-34.7249 -9.302124c-4.31044 -1.1546631 -6.8684845 -5.584961 -5.7135468 -9.895386l0.8264618 -3.0844116c1.1549377 -4.310425 5.585495 -6.8685913 9.895935 -5.713928z" fill-rule="nonzero"></path><path fill="#000000" d="m121.4022 575.41156l0 0c0 -1.74646 1.4157791 -3.1622314 3.1622314 -3.1622314l12.648537 0l0 0c0.8386688 0 1.6430054 0.33312988 2.2360382 0.92614746c0.59303284 0.5930786 0.92619324 1.3973999 0.92619324 2.236084l0 12.648499c0 1.74646 -1.4157867 3.1622314 -3.1622314 3.1622314l-12.648537 0c-1.7464523 0 -3.1622314 -1.4157715 -3.1622314 -3.1622314z" fill-rule="nonzero"></path><path fill="#ffffff" d="m110.31623 554.29663l0 0c0 -11.361816 9.210609 -20.572449 20.572472 -20.572449l0 0c5.4561462 0 10.688843 2.1674805 14.546921 6.0255737c3.8580933 3.8580322 6.025543 9.090759 6.025543 14.546875l0 0c0 11.361877 -9.210617 20.57251 -20.572464 20.57251l0 0c-11.361862 0 -20.572472 -9.210632 -20.572472 -20.57251z" fill-rule="nonzero"></path><path fill="#ffffff" d="m119.508575 566.41223l0 0c0 -2.0950317 1.6983871 -3.793457 3.7934494 -3.793457l15.173347 0l0 0c1.0060883 0 1.9709625 0.3996582 2.682373 1.111084c0.7114105 0.7114258 1.1110687 1.6762695 1.1110687 2.682373l0 15.17334c0 2.0950928 -1.6983795 3.793457 -3.7934418 3.793457l-15.173347 0c-2.0950623 0 -3.7934494 -1.6983643 -3.7934494 -3.793457z" fill-rule="nonzero"></path></g></svg>

