<?xml version="1.0" standalone="yes"?>

<svg version="1.1" viewBox="0.0 0.0 1850.0 400.0" fill="none" stroke="none" stroke-linecap="square" stroke-miterlimit="10" xmlns="http://www.w3.org/2000/svg" xmlns:xlink="http://www.w3.org/1999/xlink"><clipPath id="g2f990dfd9_0_0.0"><path d="m0 0l1850.0 0l0 400.0l-1850.0 0l0 -400.0z" clip-rule="nonzero"></path></clipPath><g clip-path="url(#g2f990dfd9_0_0.0)"><path fill="#778844" d="m0 0l1850.0 0l0 400.0l-1850.0 0z" fill-rule="nonzero"></path><path fill="#ffffff" d="m1322.3322 279.66122l0 0c-28.46228 0.005584717 -54.765137 -15.174652 -68.99951 -39.821823c-14.234375 -24.647171 -14.237305 -55.016266 -0.0078125 -79.666214c14.229492 -24.649963 40.52942 -39.835365 68.9917 -39.835365l0 79.661705z" fill-rule="nonzero"></path><path fill="#ffffff" d="m1316.4735 76.85459l0 0c0 -1.0756836 0.8720703 -1.9477005 1.9477539 -1.9477005l7.7905273 0l0 0c0.51660156 0 1.0119629 0.2052002 1.3771973 0.5704651c0.36535645 0.3652649 0.57055664 0.860672 0.57055664 1.3772354l0 28.195114c0 1.0756912 -0.8720703 1.9477081 -1.9477539 1.9477081l-7.7905273 0c-1.0756836 0 -1.9477539 -0.8720169 -1.9477539 -1.9477081z" fill-rule="nonzero"></path><path fill="#ffffff" d="m1256.4269 94.23916l0 0c-0.5373535 -0.93029785 -0.21838379 -2.1194763 0.7122803 -2.6561127l6.7401123 -3.8865356l0 0c0.4468994 -0.2577057 0.97802734 -0.32738495 1.4764404 -0.19371033c0.49853516 0.13367462 0.9234619 0.4597473 1.1815186 0.90649414l14.099609 24.414871c0.5373535 0.93029785 0.21838379 2.119484 -0.7122803 2.6561203l-6.7401123 3.8865356c-0.93066406 0.53663635 -2.1206055 0.21750641 -2.657959 -0.7127838z" fill-rule="nonzero"></path><path fill="#ffffff" d="m1210.7245 141.97212l0 0c-0.93029785 -0.53726196 -1.2493896 -1.7272339 -0.71276855 -2.6578827l3.8865967 -6.740158l0 0c0.25769043 -0.44691467 0.682251 -0.7730408 1.1804199 -0.90663147c0.49804688 -0.13357544 1.0289307 -0.063690186 1.475708 0.19430542l24.414795 14.099716c0.93029785 0.5372467 1.2493896 1.7272186 0.71276855 2.6578674l-3.8864746 6.7401733c-0.5366211 0.9306488 -1.7258301 1.2495575 -2.656128 0.7123108z" fill-rule="nonzero"></path><path fill="#ffffff" d="m1199.1666 205.82927l0 0c-1.0732422 0 -1.9433594 -0.87005615 -1.9433594 -1.9433289l0 -7.7730713l0 0c0 -0.5153961 0.20471191 -1.0096893 0.56921387 -1.3741455c0.36437988 -0.36444092 0.85876465 -0.56918335 1.3741455 -0.56918335l28.203857 0c1.0732422 0 1.9433594 0.87005615 1.9433594 1.9433289l0 7.7730713c0 1.0732727 -0.8701172 1.9433289 -1.9433594 1.9433289z" fill-rule="nonzero"></path><path fill="#ffffff" d="m1266.5371 313.8396l0 0c-0.53723145 0.93029785 -1.7271729 1.2494202 -2.657837 0.7127991l-6.7401123 -3.8865356l0 0c-0.4468994 -0.25772095 -0.7730713 -0.6823425 -0.9066162 -1.1804504c-0.13366699 -0.4981079 -0.0637207 -1.0289307 0.19421387 -1.4756775l14.099731 -24.414886c0.53723145 -0.93026733 1.7272949 -1.2494202 2.657837 -0.71276855l6.7402344 3.8865356c0.93066406 0.5366211 1.2495117 1.7258301 0.7122803 2.6560974z" fill-rule="nonzero"></path><path fill="#ffffff" d="m1218.8042 268.13727l0 0c-0.93029785 0.53726196 -2.1195068 0.21835327 -2.656128 -0.7123108l-3.8864746 -6.7401733l0 0c-0.25769043 -0.4468994 -0.32739258 -0.9779968 -0.19372559 -1.4764404c0.13366699 -0.4984436 0.4597168 -0.9234314 0.90649414 -1.181427l24.414795 -14.099701c0.93029785 -0.5372467 2.1195068 -0.21833801 2.656128 0.7123108l3.8865967 6.7401733c0.5366211 0.9306488 0.2175293 2.1206207 -0.71276855 2.6578674z" fill-rule="nonzero"></path><path fill="#ffffff" d="m1316.4735 294.94934l0 0c0 -1.0756836 0.8720703 -1.9476929 1.9477539 -1.9476929l7.7905273 0l0 0c0.51660156 0 1.0119629 0.2052002 1.3771973 0.5704651c0.36535645 0.3652649 0.57055664 0.86065674 0.57055664 1.3772278l0 28.19513c0 1.0756836 -0.8720703 1.9476929 -1.9477539 1.9476929l-7.7905273 0c-1.0756836 0 -1.9477539 -0.8720093 -1.9477539 -1.9476929z" fill-rule="nonzero"></path><path fill="#ffffff" d="m1338.0292 89.17004l0 0c0 -5.237709 4.2459717 -9.483711 9.483643 -9.483711l3.7480469 0l0 0c2.5152588 0 4.92749 0.999176 6.7060547 2.7777176c1.7784424 1.7785416 2.77771 4.1907578 2.77771 6.7059937l0 221.65897c0 5.2377014 -4.2460938 9.483704 -9.483765 9.483704l-3.7480469 0c-5.237671 0 -9.483643 -4.246002 -9.483643 -9.483704z" fill-rule="nonzero"></path><path fill="#ffffff" d="m1439.6969 134.74118l0 0c4.5343018 -2.6177216 10.330566 -1.0632019 12.946289 3.472107l1.8719482 3.2454224l0 0c1.2561035 2.1779327 1.5958252 4.766037 0.944458 7.1949463c-0.65148926 2.4289246 -2.2406006 4.4996796 -4.418091 5.7567596l-96.842285 55.90944c-4.5343018 2.6177216 -10.330566 1.0632019 -12.946289 -3.472107l-1.8719482 -3.2454224c-2.6158447 -4.535309 -1.060669 -10.333984 3.4736328 -12.951691z" fill-rule="nonzero"></path><path fill="#ffffff" d="m1451.0521 246.66322l0 0c4.5318604 2.6174011 6.0802 8.410904 3.458252 12.94014l-1.8762207 3.2411194l0 0c-1.2590332 2.1750183 -3.3310547 3.7616272 -5.760254 4.4108276c-2.4290771 0.64920044 -5.0163574 0.3078003 -7.192627 -0.9491272l-96.85095 -55.93686c-4.5318604 -2.6173859 -6.0802 -8.410904 -3.458374 -12.940155l1.8762207 -3.2410889c2.6218262 -4.529251 8.421143 -6.079117 12.953003 -3.4617157z" fill-rule="nonzero"></path><path fill="#ffffff" d="m1376.6292 97.76172l0 0c3.7056885 -3.7057495 9.713867 -3.7057495 13.419678 0l2.6517334 2.651802l0 0c1.7796631 1.7795639 2.779419 4.1931763 2.779419 6.7098618c0 2.5166855 -0.99975586 4.93029 -2.779419 6.7098618l-29.831543 29.831581c-3.7056885 3.7057495 -9.713989 3.7057495 -13.419678 0l-2.6518555 -2.6518097c-3.7056885 -3.7057495 -3.7056885 -9.713959 0 -13.419716z" fill-rule="nonzero"></path><path fill="#ffffff" d="m1392.6921 288.32944l0 0c3.7058105 3.7057495 3.7058105 9.713989 0 13.419739l-2.6517334 2.6517944l0 0c-1.7796631 1.7795715 -4.1932373 2.7792969 -6.709961 2.7792969c-2.5166016 0 -4.930298 -0.99972534 -6.709839 -2.7792969l-29.831543 -29.831573c-3.7058105 -3.70578 -3.7058105 -9.713989 0 -13.419739l2.6517334 -2.6517944c3.7058105 -3.7057495 9.713989 -3.7057495 13.4198 0z" fill-rule="nonzero"></path><path fill="#ffffff" d="m1423.8611 271.3284l0 0c1.355957 5.0621643 -1.6483154 10.265442 -6.710449 11.621796l-3.6224365 0.97058105l0 0c-2.4309082 0.65133667 -5.020874 0.31033325 -7.2003174 -0.9480591c-2.1793213 -1.2583618 -3.7695312 -3.3309937 -4.4207764 -5.7619324l-10.924438 -40.780945c-1.3560791 -5.062195 1.6483154 -10.265442 6.710449 -11.621796l3.6223145 -0.9705963c5.062134 -1.3563538 10.265137 1.6478119 11.621216 6.7100067z" fill-rule="nonzero"></path><path fill="#ffffff" d="m1440.9989 208.05812l0 0c5.062134 -1.3560638 10.265381 1.6482849 11.621704 6.710388l0.97058105 3.622406l0 0c0.6513672 2.4309082 0.3104248 5.020935 -0.94799805 7.2003174c-1.2584229 2.1793976 -3.3310547 3.7695923 -5.761963 4.420807l-40.780884 10.924438c-5.062256 1.3560638 -10.265503 -1.6482849 -11.621826 -6.710388l-0.97058105 -3.622406c-1.3563232 -5.0621033 1.6478271 -10.26506 6.709961 -11.621124z" fill-rule="nonzero"></path><path fill="#ffffff" d="m1402.553 123.50674l0 0c1.3560791 -5.062187 6.559082 -8.066353 11.621094 -6.709999l3.6224365 0.9705887l0 0c2.4309082 0.6513443 4.50354 2.2417068 5.761963 4.4212112c1.2585449 2.179512 1.5996094 4.769638 0.9484863 7.200592l-10.924438 40.78093c-1.3560791 5.062195 -6.559082 8.06636 -11.621216 6.7100067l-3.6223145 -0.9705963c-5.062134 -1.3563538 -8.066528 -6.559601 -6.710449 -11.621796z" fill-rule="nonzero"></path><path fill="#ffffff" d="m1448.7762 169.9845l0 0c5.062256 1.3560638 8.066406 6.559021 6.709961 11.62114l-0.97058105 3.6223907l0 0c-0.6512451 2.4309082 -2.2416992 4.5035706 -4.4211426 5.7620087c-2.1795654 1.2584381 -4.7696533 1.5995789 -7.2005615 0.9483795l-40.781006 -10.924438c-5.062134 -1.3560638 -8.066284 -6.559021 -6.709961 -11.621124l0.97058105 -3.6223907c1.3563232 -5.0621185 6.5595703 -8.066452 11.621826 -6.710388z" fill-rule="nonzero"></path><path fill="#41413c" d="m1275.5553 215.16316l0 0c0 -2.0510254 1.6627197 -3.7137146 3.713745 -3.7137146l14.854492 0l0 0c0.9848633 0 1.9295654 0.39126587 2.6259766 1.0877228c0.69641113 0.6964569 1.0877686 1.6410522 1.0877686 2.6259918l0 14.854462c0 2.0510406 -1.6627197 3.7137299 -3.713745 3.7137299l-14.854492 0c-2.0510254 0 -3.713745 -1.6626892 -3.713745 -3.7137299z" fill-rule="nonzero"></path><path fill="#778844" d="m1262.536 190.36584l0 0c0 -13.343384 10.816895 -24.160324 24.160278 -24.160324l0 0c6.407715 0 12.5529785 2.545456 17.083862 7.0763855c4.531006 4.530945 7.076416 10.676224 7.076416 17.083939l0 0c0 13.343369 -10.816895 24.160324 -24.160278 24.160324l0 0c-13.343384 0 -24.160278 -10.816956 -24.160278 -24.160324z" fill-rule="nonzero"></path><path fill="#778844" d="m1273.3314 204.59439l0 0c0 -2.4604492 1.9946289 -4.4550323 4.455078 -4.4550323l17.81958 0l0 0c1.1815186 0 2.3146973 0.4693756 3.1501465 1.3048553c0.8355713 0.83547974 1.3049316 1.9686279 1.3049316 3.150177l0 17.819595c0 2.460434 -1.9946289 4.4550323 -4.455078 4.4550323l-17.81958 0c-2.4604492 0 -4.455078 -1.9945984 -4.455078 -4.4550323z" fill-rule="nonzero"></path></g></svg>

