<?xml version="1.0" standalone="yes"?>

<svg version="1.1" viewBox="0.0 0.0 1850.0 400.0" fill="none" stroke="none" stroke-linecap="square" stroke-miterlimit="10" xmlns="http://www.w3.org/2000/svg" xmlns:xlink="http://www.w3.org/1999/xlink"><clipPath id="g2f990dfd9_0_0.0"><path d="m0 0l1850.0 0l0 400.0l-1850.0 0l0 -400.0z" clip-rule="nonzero"></path></clipPath><g clip-path="url(#g2f990dfd9_0_0.0)"><path fill="#778844" d="m0 0l1850.0 0l0 400.0l-1850.0 0z" fill-rule="nonzero"></path><path fill="#ffffff" d="m1634.4869 279.66125l0 0c-28.462158 0.005584717 -54.765137 -15.174683 -68.99939 -39.82184c-14.234375 -24.647171 -14.237305 -55.016266 -0.0078125 -79.666214c14.229492 -24.649963 40.52942 -39.835365 68.99158 -39.835365l0 79.661705z" fill-rule="nonzero"></path><path fill="#ffffff" d="m1628.6284 76.8546l0 0c0 -1.0756836 0.87194824 -1.9477005 1.9476318 -1.9477005l7.7906494 0l0 0c0.5164795 0 1.0119629 0.2052002 1.3771973 0.5704727c0.36523438 0.3652649 0.5704346 0.86066437 0.5704346 1.3772278l0 28.195122c0 1.0756836 -0.87194824 1.9477005 -1.9476318 1.9477005l-7.7906494 0c-1.0756836 0 -1.9476318 -0.8720169 -1.9476318 -1.9477005z" fill-rule="nonzero"></path><path fill="#ffffff" d="m1568.5817 94.23917l0 0c-0.53723145 -0.93029785 -0.21826172 -2.1194763 0.7122803 -2.6561127l6.7402344 -3.8865356l0 0c0.4468994 -0.2577057 0.97802734 -0.32738495 1.4764404 -0.19371033c0.4984131 0.13367462 0.9234619 0.4597473 1.1813965 0.90649414l14.099731 24.414879c0.53723145 0.9302902 0.21838379 2.1194763 -0.7122803 2.6561127l-6.7402344 3.8865356c-0.93066406 0.53663635 -2.1206055 0.21751404 -2.657837 -0.7127838z" fill-rule="nonzero"></path><path fill="#ffffff" d="m1522.8794 141.97212l0 0c-0.93029785 -0.5372467 -1.2493896 -1.7272186 -0.71276855 -2.6578674l3.8864746 -6.7401733l0 0c0.25769043 -0.44691467 0.68237305 -0.7730255 1.1804199 -0.9066162c0.49816895 -0.13357544 1.0289307 -0.063690186 1.475708 0.19430542l24.414917 14.099716c0.93029785 0.5372467 1.2493896 1.7272186 0.71276855 2.6578674l-3.8865967 6.740158c-0.5366211 0.9306488 -1.7258301 1.2495728 -2.6560059 0.71232605z" fill-rule="nonzero"></path><path fill="#ffffff" d="m1511.3214 205.82928l0 0c-1.0732422 0 -1.9432373 -0.87005615 -1.9432373 -1.9433289l0 -7.7730713l0 0c0 -0.5154114 0.20471191 -1.0097046 0.56921387 -1.3741455c0.36437988 -0.36444092 0.8586426 -0.56918335 1.3740234 -0.56918335l28.20398 0c1.0732422 0 1.9432373 0.87005615 1.9432373 1.9433289l0 7.7730713c0 1.0732727 -0.8699951 1.9433289 -1.9432373 1.9433289z" fill-rule="nonzero"></path><path fill="#ffffff" d="m1578.692 313.83963l0 0c-0.53723145 0.93029785 -1.7271729 1.2494202 -2.657837 0.71276855l-6.7402344 -3.8865356l0 0c-0.4468994 -0.25769043 -0.7729492 -0.682312 -0.9066162 -1.1804199c-0.13354492 -0.49813843 -0.0637207 -1.0289307 0.19433594 -1.4756775l14.099731 -24.414886c0.53723145 -0.93029785 1.7271729 -1.2494202 2.657837 -0.7127991l6.7401123 3.8865662c0.93066406 0.5366211 1.2496338 1.7257996 0.71240234 2.6560974z" fill-rule="nonzero"></path><path fill="#ffffff" d="m1530.9591 268.1373l0 0c-0.93029785 0.53723145 -2.1195068 0.21832275 -2.656128 -0.7123108l-3.8865967 -6.7401733l0 0c-0.25769043 -0.44692993 -0.32739258 -0.97802734 -0.19372559 -1.476471c0.13366699 -0.4984436 0.45983887 -0.9234009 0.90649414 -1.1813965l24.414917 -14.099716c0.93029785 -0.5372467 2.1195068 -0.21833801 2.656128 0.7123108l3.8864746 6.7401733c0.53674316 0.9306488 0.2175293 2.1206207 -0.71276855 2.6578674z" fill-rule="nonzero"></path><path fill="#ffffff" d="m1628.6284 294.94937l0 0c0 -1.0756836 0.87194824 -1.9477234 1.9476318 -1.9477234l7.7906494 0l0 0c0.5164795 0 1.0119629 0.20523071 1.3771973 0.5704956c0.36523438 0.3652649 0.5704346 0.86065674 0.5704346 1.3772278l0 28.195099c0 1.0756836 -0.87194824 1.9477234 -1.9476318 1.9477234l-7.7906494 0c-1.0756836 0 -1.9476318 -0.8720398 -1.9476318 -1.9477234z" fill-rule="nonzero"></path><path fill="#ffffff" d="m1650.184 89.170044l0 0c0 -5.237709 4.2459717 -9.483704 9.483765 -9.483704l3.7480469 0l0 0c2.5152588 0 4.92749 0.9991684 6.7059326 2.77771c1.7785645 1.7785416 2.77771 4.1907578 2.77771 6.7059937l0 221.659c0 5.2377014 -4.2459717 9.483704 -9.483643 9.483704l-3.7480469 0c-5.237793 0 -9.483765 -4.246002 -9.483765 -9.483704z" fill-rule="nonzero"></path><path fill="#ffffff" d="m1751.8518 134.7412l0 0c4.5341797 -2.6177216 10.330444 -1.0632019 12.946289 3.472107l1.8718262 3.2454224l0 0c1.2562256 2.1779327 1.5959473 4.766037 0.9445801 7.1949463c-0.65148926 2.4289093 -2.2407227 4.4996796 -4.418091 5.7567596l-96.84241 55.90944c-4.5341797 2.6177216 -10.330444 1.0632019 -12.946289 -3.472107l-1.8718262 -3.2454224c-2.6158447 -4.535309 -1.060669 -10.333984 3.4735107 -12.951691z" fill-rule="nonzero"></path><path fill="#ffffff" d="m1763.2069 246.66324l0 0c4.5318604 2.6174011 6.0802 8.410904 3.458374 12.940155l-1.8762207 3.2410889l0 0c-1.2590332 2.1750183 -3.3310547 3.7616577 -5.760254 4.410858c-2.4291992 0.64920044 -5.0164795 0.3078003 -7.192749 -0.9491272l-96.85095 -55.936874c-4.5318604 -2.6173859 -6.0802 -8.410904 -3.458252 -12.940155l1.8762207 -3.2410889c2.6218262 -4.529251 8.421143 -6.079117 12.952881 -3.461731z" fill-rule="nonzero"></path><path fill="#ffffff" d="m1688.7839 97.76173l0 0c3.7058105 -3.7057495 9.713989 -3.7057495 13.4198 0l2.6517334 2.651802l0 0c1.779541 1.7795639 2.7792969 4.1931763 2.7792969 6.7098618c0 2.5166855 -0.99975586 4.930298 -2.7792969 6.7098618l-29.831543 29.831589c-3.7058105 3.7057495 -9.713989 3.7057495 -13.4198 0l-2.6517334 -2.6518097c-3.7058105 -3.7057495 -3.7058105 -9.713974 0 -13.4197235z" fill-rule="nonzero"></path><path fill="#ffffff" d="m1704.847 288.32947l0 0c3.7056885 3.7057495 3.7056885 9.713959 0 13.419708l-2.6518555 2.6517944l0 0c-1.779541 1.7795715 -4.193115 2.7793274 -6.709839 2.7793274c-2.5167236 0 -4.930298 -0.99975586 -6.709839 -2.7793274l-29.831665 -29.831573c-3.7056885 -3.7057495 -3.7056885 -9.713959 0 -13.419708l2.6518555 -2.6517944c3.7058105 -3.7057648 9.713989 -3.7057648 13.419678 0z" fill-rule="nonzero"></path><path fill="#ffffff" d="m1736.0159 271.3284l0 0c1.3560791 5.062195 -1.6483154 10.265442 -6.710327 11.621796l-3.6224365 0.9706116l0 0c-2.4309082 0.65133667 -5.020996 0.31030273 -7.2003174 -0.9480591c-2.1794434 -1.2583618 -3.7696533 -3.3309937 -4.4207764 -5.761963l-10.924438 -40.78093c-1.3560791 -5.062195 1.6481934 -10.265442 6.710327 -11.621796l3.6224365 -0.9705963c5.062134 -1.3563538 10.265015 1.6478119 11.621094 6.7099915z" fill-rule="nonzero"></path><path fill="#ffffff" d="m1753.1537 208.05814l0 0c5.062256 -1.3560638 10.265503 1.6482849 11.621826 6.710388l0.97058105 3.622406l0 0c0.6513672 2.4309082 0.31030273 5.020935 -0.94799805 7.2003174c-1.2584229 2.1793976 -3.3310547 3.7695923 -5.761963 4.420807l-40.781006 10.924438c-5.062134 1.3560638 -10.265381 -1.6482849 -11.621704 -6.710388l-0.9707031 -3.622406c-1.3563232 -5.0621033 1.6478271 -10.26506 6.710083 -11.621124z" fill-rule="nonzero"></path><path fill="#ffffff" d="m1714.7079 123.506744l0 0c1.3560791 -5.0621796 6.55896 -8.066353 11.621094 -6.709999l3.6224365 0.9705963l0 0c2.4309082 0.6513443 4.50354 2.2416992 5.761963 4.4212112c1.2584229 2.1795044 1.5996094 4.769638 0.94836426 7.200577l-10.924438 40.780945c-1.3560791 5.062195 -6.55896 8.06636 -11.621094 6.7100067l-3.6224365 -0.9705963c-5.0620117 -1.3563538 -8.066406 -6.559601 -6.710327 -11.621796z" fill-rule="nonzero"></path><path fill="#ffffff" d="m1760.9312 169.98451l0 0c5.062134 1.3560638 8.066284 6.559021 6.709961 11.621124l-0.97058105 3.622406l0 0c-0.6513672 2.4309082 -2.2416992 4.5035553 -4.4212646 5.7620087c-2.1794434 1.2584381 -4.7695312 1.5995789 -7.2005615 0.9483795l-40.780884 -10.924438c-5.062256 -1.3560638 -8.066406 -6.559021 -6.710083 -11.621124l0.9707031 -3.622406c1.3563232 -5.0621033 6.5595703 -8.066452 11.621704 -6.710388z" fill-rule="nonzero"></path><path fill="#41413c" d="m1587.7102 215.16318l0 0c0 -2.0510254 1.6627197 -3.7137146 3.713745 -3.7137146l14.85437 0l0 0c0.98498535 0 1.9295654 0.39126587 2.6260986 1.0877228c0.69641113 0.6964569 1.0876465 1.6410522 1.0876465 2.6259918l0 14.854462c0 2.0510254 -1.6625977 3.7137146 -3.713745 3.7137146l-14.85437 0c-2.0510254 0 -3.713745 -1.6626892 -3.713745 -3.7137146z" fill-rule="nonzero"></path><path fill="#778844" d="m1574.6908 190.36584l0 0c0 -13.343369 10.817017 -24.160324 24.1604 -24.160324l0 0c6.407715 0 12.5529785 2.545456 17.083862 7.0764008c4.531006 4.530945 7.076416 10.6762085 7.076416 17.083923l0 0c0 13.343384 -10.816895 24.160324 -24.160278 24.160324l0 0c-13.343384 0 -24.1604 -10.81694 -24.1604 -24.160324z" fill-rule="nonzero"></path><path fill="#778844" d="m1585.4863 204.5944l0 0c0 -2.4604492 1.9946289 -4.4550323 4.455078 -4.4550323l17.81958 0l0 0c1.1815186 0 2.3146973 0.46936035 3.1501465 1.3048401c0.8354492 0.835495 1.3048096 1.9686432 1.3048096 3.1501923l0 17.81958c0 2.4604492 -1.9945068 4.4550323 -4.454956 4.4550323l-17.81958 0c-2.4604492 0 -4.455078 -1.9945831 -4.455078 -4.4550323z" fill-rule="nonzero"></path></g></svg>

