<?xml version="1.0" standalone="yes"?>

<svg version="1.1" viewBox="0.0 0.0 1500.0 1125.0" fill="none" stroke="none" stroke-linecap="square" stroke-miterlimit="10" xmlns="http://www.w3.org/2000/svg" xmlns:xlink="http://www.w3.org/1999/xlink"><clipPath id="g2f990e248_0_0.0"><path d="m0 0l1500.0 0l0 1125.0l-1500.0 0l0 -1125.0z" clip-rule="nonzero"></path></clipPath><g clip-path="url(#g2f990e248_0_0.0)"><path fill="#ebebeb" d="m0 0l1500.0 0l0 1125.0l-1500.0 0z" fill-rule="nonzero"></path><path fill="#778844" d="m199.60976 655.72003l0 0c-33.30632 0.0065307617 -64.08577 -17.757263 -80.74269 -46.599243c-16.656929 -28.841919 -16.660416 -64.37964 -0.009140015 -93.22485c16.651276 -28.845184 47.42723 -46.61502 80.73355 -46.61502l0 93.219574z" fill-rule="nonzero"></path><path fill="#778844" d="m192.75404 418.39713l0 0c0 -1.2587585 1.0204315 -2.2791748 2.27919 -2.2791748l9.116486 0l0 0c0.6044769 0 1.1842041 0.2401123 1.6116333 0.6675415c0.4274292 0.4274292 0.66755676 1.0071716 0.66755676 1.6116333l0 32.993744c0 1.2587585 -1.0204315 2.2791748 -2.27919 2.2791748l-9.116486 0c-1.2587585 0 -2.27919 -1.0204163 -2.27919 -2.2791748z" fill-rule="nonzero"></path><path fill="#778844" d="m122.48785 438.74042l0 0c-0.628685 -1.088623 -0.2555008 -2.480194 0.83354187 -3.1081543l7.887306 -4.548004l0 0c0.5229645 -0.3015442 1.144455 -0.38308716 1.7277374 -0.22665405c0.5832825 0.15640259 1.0805664 0.5379944 1.3824768 1.0607605l16.499374 28.570099c0.6286926 1.0886536 0.25549316 2.4802246 -0.83354187 3.1081848l-7.8872986 4.548004c-1.089035 0.6279602 -2.4815369 0.2545166 -3.1102142 -0.83410645z" fill-rule="nonzero"></path><path fill="#778844" d="m69.007324 494.5972l0 0c-1.088623 -0.6286926 -1.462059 -2.0211792 -0.8340912 -3.1102295l4.5479965 -7.8872986l0 0c0.30155945 -0.5229492 0.798439 -0.90460205 1.3813324 -1.0609131c0.5828934 -0.15631104 1.2040558 -0.074523926 1.7268295 0.22738647l28.570122 16.49936c1.088623 0.6286926 1.462059 2.0211792 0.8340912 3.1102295l-4.5479965 7.8872986c-0.62796783 1.0890503 -2.0195389 1.4622192 -3.1081696 0.8335571z" fill-rule="nonzero"></path><path fill="#778844" d="m55.482346 569.3224l0 0c-1.2559319 0 -2.274067 -1.0181274 -2.274067 -2.2740479l0 -9.096008l0 0c0 -0.6031494 0.23958588 -1.1815186 0.6660576 -1.6080322c0.4264717 -0.42645264 1.0048904 -0.6660156 1.6080093 -0.6660156l33.003967 0c1.2559357 0 2.2740707 1.0181274 2.2740707 2.2740479l0 9.096008c0 1.2559204 -1.0181351 2.2740479 -2.2740707 2.2740479z" fill-rule="nonzero"></path><path fill="#778844" d="m134.31888 695.71533l0 0c-0.6286926 1.088623 -2.0211792 1.4620361 -3.1102142 0.83410645l-7.887306 -4.5480347l0 0c-0.5229721 -0.30151367 -0.9045944 -0.7984009 -1.0609207 -1.3813477c-0.15631866 -0.58288574 -0.074531555 -1.2040405 0.22737885 -1.7268066l16.499382 -28.57013c0.62867737 -1.088623 2.0211792 -1.4620361 3.1102142 -0.8340454l7.8872986 4.5479736c1.089035 0.6279907 1.4622345 2.0195312 0.83354187 3.1081543z" fill-rule="nonzero"></path><path fill="#778844" d="m78.46211 642.2348l0 0c-1.088623 0.6286621 -2.4802017 0.25549316 -3.1081696 -0.8335571l-4.5479965 -7.887329l0 0c-0.30155945 -0.5229492 -0.3830948 -1.1444702 -0.22667694 -1.7277222c0.15642548 -0.58325195 0.5379944 -1.0805664 1.0607758 -1.3824463l28.570114 -16.49939c1.088623 -0.62872314 2.4802017 -0.25549316 3.108162 0.8335571l4.548004 7.887268c0.62796783 1.0890503 0.25452423 2.4815063 -0.8340988 3.1102295z" fill-rule="nonzero"></path><path fill="#778844" d="m192.75404 673.6101l0 0c0 -1.2587891 1.0204315 -2.2792358 2.27919 -2.2792358l9.116486 0l0 0c0.6044769 0 1.1842041 0.24017334 1.6116333 0.66760254c0.4274292 0.4274292 0.66755676 1.0071411 0.66755676 1.6116333l0 32.993713c0 1.258728 -1.0204315 2.2791748 -2.27919 2.2791748l-9.116486 0c-1.2587585 0 -2.27919 -1.0204468 -2.27919 -2.2791748z" fill-rule="nonzero"></path><path fill="#778844" d="m217.97829 432.8086l0 0c0 -6.1291504 4.968643 -11.097778 11.097763 -11.097778l4.3859406 0l0 0c2.9433136 0 5.766083 1.16922 7.8473053 3.2504578c2.0812378 2.0812378 3.250473 4.9039917 3.250473 7.8473206l0 259.3838c0 6.1290894 -4.968643 11.097717 -11.097778 11.097717l-4.3859406 0c-6.12912 0 -11.097763 -4.968628 -11.097763 -11.097717z" fill-rule="nonzero"></path><path fill="#778844" d="m336.94922 486.13562l0 0c5.305908 -3.0632324 12.088654 -1.2441406 15.149689 4.063019l2.1904297 3.7977905l0 0c1.4699402 2.548584 1.8675232 5.577179 1.1052246 8.419464c-0.76226807 2.8423157 -2.6219788 5.265503 -5.1699524 6.736511l-113.32425 65.424866c-5.305908 3.0632324 -12.088638 1.2441406 -15.149658 -4.0630493l-2.190445 -3.7977905c-3.06102 -5.30719 -1.2411804 -12.092773 4.064728 -15.155945z" fill-rule="nonzero"></path><path fill="#778844" d="m350.23694 617.106l0 0c5.3031616 3.0628662 7.11499 9.842346 4.0469055 15.142456l-2.1955261 3.7927246l0 0c-1.4733582 2.545166 -3.8980103 4.4018555 -6.7406006 5.16156c-2.8425598 0.75964355 -5.8702087 0.36016846 -8.41687 -1.1107178l-113.33429 -65.45691c-5.303131 -3.0628662 -7.11499 -9.842346 -4.046875 -15.142456l2.1955109 -3.7927246c3.0681 -5.30011 9.85434 -7.1137695 15.157471 -4.0509033z" fill-rule="nonzero"></path><path fill="#778844" d="m263.14767 442.86252l0 0c4.3364563 -4.3364563 11.367218 -4.3364563 15.703674 0l3.103119 3.103119l0 0c2.082428 2.082428 3.2523499 4.9067993 3.2523499 7.8518066c0 2.9450073 -1.1699219 5.769409 -3.2523499 7.851837l-34.908707 34.908722c-4.336441 4.336426 -11.367218 4.336426 -15.703659 0l-3.103119 -3.103119c-4.3364563 -4.3364563 -4.3364563 -11.367218 0 -15.703674z" fill-rule="nonzero"></path><path fill="#778844" d="m281.94455 665.8635l0 0c4.3364563 4.336426 4.3364563 11.3671875 0 15.703674l-3.103119 3.1030884l0 0c-2.082428 2.0824585 -4.9067993 3.2523193 -7.8518066 3.2523193c-2.9450073 0 -5.769409 -1.1698608 -7.851837 -3.2523193l-34.908707 -34.90869c-4.3364563 -4.336426 -4.3364563 -11.367249 0 -15.703674l3.103119 -3.1030884c4.336441 -4.336487 11.367218 -4.336487 15.703659 0z" fill-rule="nonzero"></path><path fill="#778844" d="m318.41815 645.969l0 0c1.586853 5.923767 -1.9288025 12.012573 -7.8524475 13.599731l-4.2388916 1.1358032l0 0c-2.844635 0.76220703 -5.8754883 0.36315918 -8.425781 -1.109375c-2.550293 -1.4725342 -4.411133 -3.8979492 -5.1731873 -6.7426147l-12.783691 -47.721558c-1.586853 -5.923767 1.9288025 -12.012573 7.8524475 -13.5997925l4.2388916 -1.1357422c5.923645 -1.5872192 12.0121155 1.9282227 13.5989685 7.8519897z" fill-rule="nonzero"></path><path fill="#778844" d="m338.47272 571.9306l0 0c5.9237366 -1.586853 12.012543 1.928772 13.599762 7.852417l1.1357727 4.2388916l0 0c0.76220703 2.8446655 0.36312866 5.8754883 -1.1094055 8.425781c-1.4725342 2.550293 -3.8979187 4.411194 -6.742584 5.173218l-47.72159 12.783691c-5.9237366 1.586853 -12.012543 -1.928833 -13.599731 -7.852478l-1.1357727 -4.2388916c-1.5872192 -5.923645 1.9282532 -12.012085 7.8519897 -13.598938z" fill-rule="nonzero"></path><path fill="#778844" d="m293.48367 472.98914l0 0c1.586853 -5.9237366 7.675293 -9.439178 13.598938 -7.8519897l4.238922 1.1357727l0 0c2.844635 0.76220703 5.2700195 2.62323 6.7426453 5.1736755c1.4726257 2.5504456 1.8718262 5.5813904 1.1098022 8.426086l-12.783722 47.721558c-1.586853 5.923767 -7.675293 9.439209 -13.598938 7.8519897l-4.238922 -1.1357422c-5.923645 -1.5872192 -9.439301 -7.6760254 -7.8524475 -13.5997925z" fill-rule="nonzero"></path><path fill="#778844" d="m347.5738 527.3771l0 0c5.9237366 1.586853 9.439209 7.675354 7.8519897 13.598999l-1.1357727 4.2388916l0 0c-0.76220703 2.8446045 -2.62323 5.2700195 -5.1736755 6.742676c-2.5504456 1.4725952 -5.5813904 1.8718262 -8.426056 1.1097412l-47.72159 -12.783691c-5.9237366 -1.586853 -9.439178 -7.675293 -7.8519897 -13.598938l1.1357727 -4.2388916c1.5872192 -5.923645 7.6760254 -9.439331 13.599762 -7.852478z" fill-rule="nonzero"></path><path fill="#41413c" d="m144.87189 580.2449l0 0c0 -2.4001465 1.9456787 -4.345825 4.3457794 -4.345825l17.382584 0l0 0c1.1525574 0 2.2579346 0.45788574 3.0729218 1.2728882c0.8149872 0.81500244 1.2728424 1.9203491 1.2728424 3.072937l0 17.382568c0 2.4000854 -1.9456635 4.345764 -4.345764 4.345764l-17.382584 0c-2.4001007 0 -4.3457794 -1.9456787 -4.3457794 -4.345764z" fill-rule="nonzero"></path><path fill="#ffffff" d="m129.63672 551.2272l0 0c0 -15.614319 12.657913 -28.272217 28.272232 -28.272217l0 0c7.4982605 0 14.689423 2.9786987 19.9915 8.280762c5.302063 5.302063 8.280746 12.493225 8.280746 19.991455l0 0c0 15.614319 -12.657913 28.272278 -28.272247 28.272278l0 0c-15.614319 0 -28.272232 -12.657959 -28.272232 -28.272278z" fill-rule="nonzero"></path><path fill="#ffffff" d="m142.26953 567.8773l0 0c0 -2.8791504 2.3340454 -5.213196 5.2132416 -5.213196l20.852356 0l0 0c1.3826447 0 2.7086487 0.5492554 3.686325 1.5269165c0.9776764 0.97766113 1.5269165 2.30365 1.5269165 3.6862793l0 20.852356c0 2.8792114 -2.3340454 5.213257 -5.2132416 5.213257l-20.852356 0c-2.8791962 0 -5.2132416 -2.3340454 -5.2132416 -5.213257z" fill-rule="nonzero"></path></g></svg>

